<svg width="160" height="44" viewBox="0 0 160 44" fill="none" xmlns="http://www.w3.org/2000/svg">
<g clip-path="url(#clip0_3527_834)">
<path d="M30.8613 23.0151H33.7535C36.1637 23.0151 37.3688 22.1924 37.3688 20.547C37.3688 19.4961 37.3052 18.2142 33.7217 18.2142H30.8613V23.0151Z" fill="white"/>
<path d="M43.136 22.4332L42.9612 22.1306C42.5798 24.7182 40.8556 27.5207 33.8396 27.5207H30.8521V33.8423C26.1881 33.8423 25.2028 33.8423 25.2028 30.2595V17.1944C25.2028 13.6355 26.0212 13.6355 29.7318 13.6355H33.5457C35.1904 13.6037 36.8272 13.8027 38.4163 14.2406L34.5071 7.46524C30.6852 0.809279 22.1994 -1.46776 15.5648 2.36977C13.4592 3.5879 11.7033 5.34743 10.4876 7.45728L6.72139 14.0018C7.47622 14.4158 7.6113 15.2438 7.6113 16.868V24.5351C7.6113 27.9904 8.30256 29.113 11.5841 29.113H15.5887V13.5798C20.3798 13.5798 21.2697 13.5798 21.2697 17.067V30.1003C21.2697 33.5238 20.8089 33.8502 16.6772 33.8502H11.6159C4.85418 33.8502 1.93021 31.1194 1.93021 24.6386V22.3217L1.86665 22.4411C-1.96312 29.0891 0.309315 37.5922 6.94387 41.4297C9.05739 42.6479 11.449 43.2928 13.8804 43.2928H31.1381C38.7977 43.2928 45.0111 37.0667 45.0111 29.3917C45.0111 26.9554 44.3675 24.5589 43.1518 22.4411" fill="white"/>
<path d="M66.6555 31.3505C65.8688 32.8632 63.6044 34.0655 61.2684 34.0655C53.6883 34.0655 51.5112 29.177 51.5112 24.1611C51.5112 19.1453 53.4579 14.4797 61.4273 14.4797H69.929C69.929 17.5689 70.3978 18.8587 66.282 18.8587H61.467C57.0016 18.8587 57.0016 18.8268 57.0016 24.1532C57.0016 27.6245 57.9471 29.6388 61.4352 29.6388C65.8688 29.6388 65.8688 29.4477 65.8688 26.0162H63.3183C60.4897 26.0162 60.2672 25.6659 60.2672 21.9796H71.2162V33.8664C67.601 33.8664 66.6555 33.7709 66.6555 31.3426" fill="white"/>
<path d="M89.2132 33.8425C86.8216 33.8425 85.8125 33.5878 84.4617 31.6053L80.9339 26.4621C80.2109 25.3633 79.9645 22.935 82.5707 22.935H83.7387C85.2695 22.935 86.035 22.2397 86.035 20.8491C86.035 20.029 85.9714 18.8666 82.5707 18.8666H79.901V33.8425C75.2131 33.8425 74.4901 33.8425 74.4901 30.4031V17.8873C74.4901 14.4797 75.5627 14.4797 78.8681 14.4797H82.3959C90.3574 14.4797 91.4856 18.1023 91.4856 20.8491C91.4856 24.7901 88.9669 26.2073 86.2018 26.2073L93.3131 33.8346H89.2211L89.2132 33.8425Z" fill="white"/>
<path d="M111.364 33.8107C108.782 33.6833 108.599 32.2979 107.844 30.4349H99.8189C98.2775 34.4396 97.8405 33.8425 92.7394 33.8425L99.7236 17.0354C100.669 14.7026 101.106 14.416 103.808 14.416H106.708L114.947 33.8345C112.524 33.8345 111.864 33.8345 111.364 33.8027M103.816 20.029L101.392 26.3028H106.271L103.816 20.029Z" fill="white"/>
<path d="M124.546 33.8744H120.74C118.73 33.8744 117.752 33.7151 117.22 33.3409C116.306 32.712 116.433 31.4461 116.433 30.4986V17.8873C116.433 14.6708 117.156 14.4797 120.772 14.4797H124.8C131.284 14.4797 134.708 17.9749 134.708 24.0337C134.708 30.0926 130.998 33.8744 124.546 33.8744ZM124.14 18.8666H121.781V29.5193H123.918C127.568 29.5193 129.393 27.6802 129.393 24.0019C129.393 19.8379 127.788 18.8666 124.14 18.8666Z" fill="white"/>
<path d="M141.938 14.4873C140.055 14.4873 137.909 14.2405 137.623 16.5732C137.584 17.027 137.576 17.4729 137.592 17.9267V30.4106C137.592 33.6271 138.283 33.8501 141.938 33.8501H149.335C153.523 33.8501 153.109 32.6558 153.109 29.4393H142.947V26.2865H148.485C152.577 26.2865 152.164 25.5301 152.164 22.4091H142.939V18.906H149.137C151.028 18.906 151.941 18.7149 152.378 18.3407C153.324 17.5525 153.101 15.5621 153.101 14.4952H141.93L141.938 14.4873Z" fill="white"/>
<path d="M125.843 38.5486C125.843 38.5486 125.907 38.5645 125.907 38.5964C125.907 38.5964 125.907 38.5964 125.907 38.6043V43.3973C125.907 43.4371 125.883 43.453 125.843 43.453H125.605C125.605 43.453 125.541 43.4371 125.541 43.3973V38.6043C125.541 38.6043 125.565 38.5486 125.597 38.5406C125.597 38.5406 125.597 38.5406 125.605 38.5406H125.843V38.5486Z" fill="white"/>
<path d="M131.896 38.5486C131.96 38.5486 131.992 38.5725 131.992 38.6442L132.389 43.4052C132.389 43.4052 132.373 43.461 132.341 43.461C132.341 43.461 132.333 43.461 132.325 43.461H132.079C132.079 43.461 132.023 43.445 132.023 43.4132C132.023 43.4132 132.023 43.4052 132.023 43.3973L131.682 39.1139L130.061 43.254C130.045 43.3017 129.997 43.3415 129.942 43.3336H129.711C129.656 43.3336 129.608 43.3017 129.592 43.254L127.979 39.1139L127.637 43.3973C127.637 43.3973 127.622 43.453 127.598 43.453C127.598 43.453 127.59 43.453 127.582 43.453H127.336C127.336 43.453 127.272 43.4371 127.28 43.3973L127.669 38.6362C127.669 38.5805 127.709 38.5406 127.765 38.5406C127.765 38.5406 127.773 38.5406 127.78 38.5406H128.011C128.138 38.5406 128.17 38.6123 128.241 38.7875L129.846 42.9275L131.451 38.7875C131.515 38.6123 131.555 38.5406 131.674 38.5406H131.912L131.896 38.5486Z" fill="white"/>
<path d="M136.074 37.2178C136.074 37.2178 136.122 37.2417 136.122 37.2656V37.3133C136.122 37.3133 136.122 37.3532 136.106 37.377L135.399 38.1573C135.399 38.1573 135.359 38.1812 135.335 38.1573L135.255 38.0936C135.255 38.0936 135.224 38.0538 135.24 38.0299L135.74 37.2417C135.74 37.2417 135.772 37.2098 135.804 37.2098H136.082L136.074 37.2178ZM133.944 41.0155C133.944 42.6954 134.199 43.1731 135.486 43.1731C136.773 43.1731 137.027 42.6954 137.027 41.0155C137.027 39.3356 136.773 38.842 135.486 38.842C134.199 38.842 133.944 39.3356 133.944 41.0155ZM137.401 41.0155C137.401 42.9343 137.043 43.4996 135.486 43.4996C133.929 43.4996 133.579 42.9422 133.579 41.0155C133.579 39.0888 133.929 38.5156 135.486 38.5156C137.043 38.5156 137.401 39.0968 137.401 41.0155Z" fill="white"/>
<path d="M138.722 38.5469C138.722 38.5469 138.77 38.5628 138.786 38.6106L139.93 42.6551C140.049 43.1169 140.073 43.1726 140.256 43.1726C140.455 43.1726 140.478 43.1169 140.598 42.6551L141.734 38.6106C141.734 38.5628 141.75 38.5469 141.789 38.5469H142.052C142.099 38.5469 142.115 38.5628 142.107 38.6106L140.939 42.7347C140.764 43.3876 140.725 43.4911 140.248 43.4911C139.803 43.4911 139.755 43.3955 139.573 42.7347L138.405 38.6106C138.389 38.5548 138.405 38.5469 138.452 38.5469H138.722Z" fill="white"/>
<path d="M146.276 38.5469C146.276 38.5469 146.332 38.5628 146.339 38.5946C146.339 38.5946 146.339 38.6026 146.339 38.6106V38.8176C146.339 38.8176 146.324 38.8733 146.292 38.8813C146.292 38.8813 146.284 38.8813 146.276 38.8813H143.646V40.9513H146.03C146.03 40.9513 146.085 40.9752 146.093 41.007C146.093 41.007 146.093 41.007 146.093 41.015V41.222C146.093 41.222 146.077 41.2777 146.046 41.2857C146.046 41.2857 146.038 41.2857 146.03 41.2857H143.646V43.1487H146.276C146.276 43.1487 146.332 43.1646 146.339 43.1965C146.339 43.1965 146.339 43.2045 146.339 43.2124V43.4194C146.339 43.4194 146.324 43.4752 146.292 43.4831C146.292 43.4831 146.284 43.4831 146.276 43.4831H143.384C143.312 43.4831 143.28 43.4513 143.28 43.3876V38.6663C143.28 38.6185 143.304 38.5708 143.352 38.5628C143.36 38.5628 143.368 38.5628 143.376 38.5628H146.268L146.276 38.5469Z" fill="white"/>
<path d="M147.914 38.5486C147.914 38.5486 147.977 38.5645 147.977 38.5964C147.977 38.5964 147.977 38.5964 147.977 38.6043V43.3973C147.977 43.4371 147.954 43.453 147.914 43.453H147.676C147.676 43.453 147.612 43.4371 147.612 43.3973V38.6043C147.612 38.6043 147.636 38.5486 147.668 38.5406C147.668 38.5406 147.668 38.5406 147.676 38.5406H147.914V38.5486Z" fill="white"/>
<path d="M152.18 38.5634C152.18 38.5634 152.243 38.5793 152.243 38.6191V38.7863C152.243 38.8261 152.22 38.85 152.188 38.85H150.75C150.019 38.85 149.677 39.065 149.677 39.5825V39.67C149.677 40.0761 149.772 40.2831 150.257 40.4901L151.806 41.1509C152.251 41.334 152.529 41.7799 152.498 42.2655V42.4407C152.498 43.4757 151.655 43.4996 150.893 43.4996C150.543 43.4996 149.717 43.4837 149.288 43.4518C149.256 43.4518 149.232 43.4359 149.232 43.3961V43.2289C149.232 43.2289 149.256 43.1732 149.288 43.1732H150.964C151.56 43.1732 152.124 43.1174 152.124 42.4407V42.2974C152.156 41.9232 151.933 41.5729 151.592 41.4375L149.987 40.7688C149.526 40.6334 149.24 40.1796 149.296 39.7099V39.5825C149.296 38.7385 149.907 38.5236 150.829 38.5236C151.179 38.5236 151.751 38.5395 152.164 38.5713" fill="white"/>
<path d="M156.805 41.2696C156.805 41.2218 156.836 41.1899 156.884 41.1899C156.884 41.1899 156.884 41.1899 156.892 41.1899H157.154C157.202 41.1899 157.226 41.2138 157.226 41.2536V42.0737C157.226 42.7265 157.488 42.838 158.378 42.838C159.268 42.838 159.53 42.7265 159.53 42.0737V41.2536C159.53 41.2536 159.546 41.1979 159.578 41.1899C159.578 41.1899 159.585 41.1899 159.593 41.1899H159.856C159.903 41.1899 159.943 41.2218 159.951 41.2696C159.991 41.5323 160.007 41.803 159.999 42.0737C159.999 43.1167 159.625 43.3874 158.378 43.3874C157.13 43.3874 156.757 43.1167 156.757 42.0737C156.757 41.803 156.765 41.5403 156.805 41.2696Z" fill="white"/>
<path d="M157.688 39.5589C157.704 39.5191 157.719 39.4952 157.767 39.4952H158.021C158.021 39.4952 158.077 39.5112 158.085 39.543C158.085 39.543 158.085 39.5589 158.085 39.5669V39.9491C158.085 40.2038 158.125 40.2755 158.315 40.2755H159.92C159.92 40.2755 159.976 40.2914 159.984 40.3233C159.984 40.3233 159.984 40.3312 159.984 40.3392V40.7213C159.984 40.7213 159.968 40.7771 159.936 40.785C159.936 40.785 159.928 40.785 159.92 40.785H158.18C157.68 40.785 157.64 40.3869 157.64 40.0764C157.64 39.9013 157.656 39.7341 157.688 39.5669" fill="white"/>
<path d="M158.647 38.723V37.7676C158.194 37.7676 158.075 37.8631 158.075 38.2373C158.075 38.6275 158.194 38.723 158.647 38.731M158.774 37.2581H158.902C158.981 37.2581 159.013 37.2819 159.013 37.4014V38.731C159.458 38.715 159.553 38.6195 159.553 38.2135V37.4969C159.553 37.4969 159.569 37.4412 159.601 37.4332C159.601 37.4332 159.609 37.4332 159.617 37.4332H159.879C159.879 37.4332 159.942 37.4491 159.95 37.4889C159.982 37.7358 159.998 37.9905 159.998 38.2373C159.998 39.0574 159.768 39.2405 158.822 39.2405C157.877 39.2405 157.646 39.0574 157.646 38.2373C157.646 37.4173 157.869 37.266 158.782 37.2581" fill="white"/>
<path d="M157.688 35.212C157.688 35.212 157.719 35.1483 157.759 35.1483H158.013C158.053 35.1483 158.077 35.1722 158.077 35.22V35.8808C158.077 36.3266 158.228 36.3903 158.816 36.3903C159.404 36.3903 159.555 36.3266 159.555 35.8808V35.22C159.555 35.1722 159.579 35.1563 159.618 35.1563H159.873C159.873 35.1563 159.944 35.1802 159.944 35.212C159.976 35.4349 159.992 35.6499 159.992 35.8728C159.992 36.7247 159.761 36.8919 158.816 36.8919C157.87 36.8919 157.64 36.7247 157.64 35.8728C157.64 35.6499 157.656 35.427 157.688 35.212Z" fill="white"/>
<path d="M157.655 34.288C157.655 34.288 157.671 34.2323 157.702 34.2243C157.702 34.2243 157.71 34.2243 157.718 34.2243H159.911C159.911 34.2243 159.967 34.2403 159.975 34.2721C159.975 34.2721 159.975 34.2801 159.975 34.288V34.6702C159.975 34.6702 159.959 34.7259 159.927 34.7339C159.927 34.7339 159.919 34.7339 159.911 34.7339H157.718C157.718 34.7339 157.663 34.718 157.655 34.6861C157.655 34.6861 157.655 34.6782 157.655 34.6702V34.288ZM156.995 34.1766C157.138 34.1606 157.273 34.2721 157.281 34.4154C157.281 34.4393 157.281 34.4552 157.281 34.4791C157.305 34.6304 157.202 34.7657 157.051 34.7817C157.035 34.7817 157.011 34.7817 156.995 34.7817C156.844 34.7976 156.717 34.6861 156.701 34.5348C156.701 34.5189 156.701 34.495 156.701 34.4791C156.677 34.3358 156.781 34.2005 156.932 34.1766C156.955 34.1766 156.971 34.1766 156.995 34.1766Z" fill="white"/>
<path d="M159.705 33.0946C159.856 33.0787 159.983 33.1902 159.999 33.3414C159.999 33.3574 159.999 33.3813 159.999 33.3972C160.015 33.5484 159.911 33.6838 159.768 33.6997C159.752 33.6997 159.728 33.6997 159.713 33.6997C159.562 33.7077 159.434 33.6042 159.419 33.4529C159.419 33.437 159.419 33.4131 159.419 33.3972C159.403 33.2539 159.506 33.1185 159.649 33.0946C159.665 33.0946 159.689 33.0946 159.705 33.0946ZM157.925 33.0946C158.068 33.0787 158.203 33.1902 158.211 33.3335C158.211 33.3494 158.211 33.3733 158.211 33.3892C158.235 33.5325 158.131 33.6758 157.98 33.6918C157.957 33.6918 157.941 33.6918 157.917 33.6918C157.766 33.7077 157.639 33.5962 157.623 33.4449C157.623 33.429 157.623 33.4051 157.623 33.3892C157.607 33.2459 157.71 33.1106 157.853 33.0867C157.869 33.0867 157.893 33.0867 157.909 33.0867" fill="white"/>
<path d="M159.506 30.1093C159.506 30.1093 159.522 30.0536 159.554 30.0457C159.554 30.0457 159.562 30.0457 159.57 30.0457H159.912C159.912 30.0457 159.967 30.0616 159.975 30.0934C159.975 30.0934 159.975 30.1014 159.975 30.1093V31.6778C159.975 31.7256 159.951 31.7495 159.912 31.7495H159.57C159.57 31.7495 159.514 31.7335 159.506 31.7017C159.506 31.7017 159.506 31.6937 159.506 31.6858V31.1444H157.425C157.242 31.1444 157.202 31.224 157.202 31.4788V31.7335C157.202 31.7813 157.178 31.8052 157.139 31.8052H156.868C156.821 31.8052 156.805 31.7813 156.789 31.7335C156.757 31.6061 156.741 31.4788 156.741 31.3434C156.741 31.0329 156.781 30.6269 157.274 30.6269H159.49V30.1093H159.506Z" fill="white"/>
<path d="M157.736 29.4308H157.76C158.125 29.4308 158.276 29.2875 158.276 28.8257C158.276 28.3639 158.125 28.2126 157.76 28.2126H157.744C157.37 28.2126 157.227 28.3639 157.227 28.8257C157.227 29.2875 157.378 29.4308 157.744 29.4308M157.656 27.6712H157.847C158.006 27.6633 158.173 27.6951 158.316 27.7668L159.937 28.5868C159.937 28.5868 159.977 28.6266 159.977 28.6585V29.1043C159.977 29.1521 159.945 29.168 159.897 29.1441L158.689 28.5391C158.713 28.6505 158.729 28.762 158.721 28.8814C158.721 29.6139 158.467 29.9642 157.839 29.9642H157.648C156.981 29.9642 156.751 29.5661 156.751 28.8257C156.751 28.0852 156.973 27.6712 157.648 27.6712" fill="white"/>
<path d="M159.706 26.9471C159.857 26.9311 159.984 27.0426 160 27.1939C160 27.2098 160 27.2337 160 27.2496C160.024 27.4009 159.913 27.5362 159.77 27.5601C159.754 27.5601 159.73 27.5601 159.714 27.5601C159.563 27.5681 159.436 27.4566 159.42 27.3053C159.42 27.2894 159.42 27.2655 159.42 27.2496C159.404 27.1063 159.508 26.971 159.651 26.9471C159.666 26.9471 159.69 26.9471 159.706 26.9471Z" fill="white"/>
<path d="M158.538 25.6338C158.689 25.9364 158.856 26.0319 159.063 26.0319C159.365 26.0319 159.524 25.8329 159.524 25.4428V25.387C159.524 24.989 159.381 24.7979 159.11 24.7979C158.84 24.7979 158.745 24.989 158.681 25.188L158.538 25.6418V25.6338ZM157.219 25.4268C157.219 25.7453 157.347 25.9364 157.633 25.9364C157.895 25.9364 158.006 25.7692 158.093 25.5463L158.205 25.18C158.109 24.981 157.895 24.8536 157.672 24.8616C157.37 24.8616 157.219 25.0208 157.219 25.3711V25.4189V25.4268ZM156.751 25.3711C156.751 24.6546 157.029 24.3281 157.625 24.3281C157.942 24.2963 158.244 24.4555 158.395 24.7421C158.499 24.4237 158.801 24.2246 159.134 24.2485C159.722 24.2485 160 24.6148 160 25.3711V25.4507C160 26.2151 159.722 26.5733 159.118 26.5733C158.785 26.5654 158.483 26.3663 158.34 26.0638C158.213 26.3345 157.934 26.5017 157.641 26.4857C157.037 26.4857 156.759 26.1514 156.759 25.4428V25.3791L156.751 25.3711Z" fill="white"/>
<path d="M158.538 22.9192C158.689 23.2218 158.856 23.3173 159.063 23.3173C159.365 23.3173 159.524 23.1183 159.524 22.7282V22.6724C159.524 22.2744 159.381 22.0833 159.11 22.0833C158.84 22.0833 158.745 22.2744 158.681 22.4734L158.538 22.9272V22.9192ZM157.219 22.7122C157.219 23.0307 157.347 23.2218 157.633 23.2218C157.895 23.2218 158.006 23.0546 158.093 22.8317L158.205 22.4654C158.109 22.2664 157.895 22.139 157.672 22.147C157.37 22.147 157.219 22.3062 157.219 22.6565V22.7043V22.7122ZM156.751 22.6565C156.751 21.94 157.029 21.6135 157.625 21.6135C157.942 21.5817 158.244 21.7409 158.395 22.0275C158.499 21.7091 158.801 21.51 159.134 21.5339C159.722 21.5339 160 21.9002 160 22.6565V22.7361C160 23.5005 159.722 23.8587 159.118 23.8587C158.785 23.8508 158.483 23.6517 158.34 23.3492C158.213 23.6199 157.934 23.7871 157.641 23.7711C157.037 23.7711 156.759 23.4368 156.759 22.7282V22.6645L156.751 22.6565Z" fill="white"/>
<path d="M158.379 20.5779C159.269 20.5779 159.524 20.4505 159.524 19.9171C159.524 19.3836 159.261 19.2562 158.379 19.2562C157.497 19.2562 157.219 19.3836 157.219 19.9171C157.219 20.4505 157.49 20.5779 158.379 20.5779ZM158.379 18.7228C159.627 18.7228 159.992 18.9537 159.992 19.9171C159.992 20.8804 159.635 21.1113 158.379 21.1113C157.124 21.1113 156.751 20.8804 156.751 19.9171C156.751 18.9537 157.124 18.7148 158.379 18.7148" fill="white"/>
<path d="M158.545 16.9626C158.545 16.9626 158.561 16.8989 158.592 16.8989C158.592 16.8989 158.6 16.8989 158.608 16.8989H158.95C158.95 16.8989 159.014 16.9228 159.014 16.9547C159.014 16.9547 159.014 16.9547 159.014 16.9626V18.1808C159.014 18.1808 158.998 18.2365 158.966 18.2444C158.966 18.2444 158.958 18.2444 158.95 18.2444H158.608C158.608 18.2444 158.553 18.2285 158.545 18.1967C158.545 18.1967 158.545 18.1887 158.545 18.1808V16.9626Z" fill="white"/>
<path d="M156.772 14.6942C156.772 14.6942 156.788 14.6385 156.82 14.6305C156.82 14.6305 156.828 14.6305 156.836 14.6305H158.393C159.633 14.6305 159.99 14.9171 159.99 15.976C159.99 16.191 159.974 16.4139 159.943 16.6289C159.943 16.6766 159.911 16.7085 159.863 16.7085C159.863 16.7085 159.863 16.7085 159.855 16.7085H159.585C159.585 16.7085 159.53 16.6926 159.522 16.6607C159.522 16.6607 159.522 16.6528 159.522 16.6448V15.976C159.522 15.2993 159.267 15.1639 158.393 15.1719H157.241V16.1273C157.241 16.1273 157.225 16.183 157.194 16.191C157.194 16.191 157.186 16.191 157.178 16.191H156.836C156.836 16.191 156.78 16.1751 156.772 16.1432C156.772 16.1432 156.772 16.1432 156.772 16.1352V14.7021V14.6942Z" fill="white"/>
</g>
<defs>
<clipPath id="clip0_3527_834">
<rect width="160" height="42.9851" fill="white" transform="translate(0 0.507446)"/>
</clipPath>
</defs>
</svg>
