<svg width="32" height="33" viewBox="0 0 32 33" fill="none" xmlns="http://www.w3.org/2000/svg">
<path d="M29 15.1225H25.0898V12.3159C26.8514 11.9527 28.1823 10.3561 28.1823 8.4468C28.1823 6.27049 26.4533 4.5 24.3281 4.5C22.2029 4.5 20.4739 6.27054 20.4739 8.4468C20.4739 10.3561 21.8048 11.9527 23.5664 12.3159V15.1225H8.43359V12.3159C10.1952 11.9527 11.5261 10.3561 11.5261 8.4468C11.5261 6.27049 9.79707 4.5 7.67188 4.5C5.54668 4.5 3.81768 6.27054 3.81768 8.4468C3.81768 10.3561 5.14855 11.9527 6.91016 12.3159V15.1225H3V16.6825H12.6398L10.9359 27.5H12.4791L14.1829 16.6825H17.8171L19.521 27.5H21.0642L19.3602 16.6825H29V15.1225ZM6.91016 10.702C5.99802 10.378 5.34112 9.48974 5.34112 8.4468C5.34112 7.13075 6.3867 6.06004 7.67188 6.06004C8.95705 6.06004 10.0026 7.13075 10.0026 8.4468C10.0026 9.48974 9.34573 10.378 8.43359 10.702V9.06551H6.91016V10.702ZM23.5664 10.702C22.6543 10.378 21.9974 9.48974 21.9974 8.4468C21.9974 7.13075 23.043 6.06004 24.3281 6.06004C25.6133 6.06004 26.6589 7.13075 26.6589 8.4468C26.6589 9.48974 26.002 10.378 25.0898 10.702V9.06551H23.5664V10.702Z" fill="#76AC64"/>
<path d="M16.7617 17.5137H15.2383V19.5175H16.7617V17.5137Z" fill="#76AC64"/>
<path d="M16.7617 20.8857H15.2383V22.8895H16.7617V20.8857Z" fill="#76AC64"/>
<path d="M16.7617 24.2549H15.2383V26.2587H16.7617V24.2549Z" fill="#76AC64"/>
</svg>
