<svg width="86" height="86" viewBox="0 0 86 86" fill="none" xmlns="http://www.w3.org/2000/svg">
<path d="M43 7.5V15.3725L57.2776 11.4362L43 7.5ZM43 15.3725C42.6778 15.3725 42.3307 15.4709 42.0581 15.6677L8.74363 39.3344C8.32843 39.6296 8.09915 40.1032 8.09915 40.6137V45.2879C8.09915 48.0618 11.4579 51.5859 15.238 51.5859C17.506 51.5859 19.6068 50.3436 20.9391 48.7322C22.5627 50.3436 25.1592 51.5859 27.9292 51.5859C30.8169 51.5859 33.5064 50.1959 35.1176 48.4861C36.8527 50.2082 39.7776 51.5859 43 51.5859C46.2224 51.5859 49.1473 50.2082 50.8824 48.4861C52.4874 50.1959 55.1831 51.5859 58.0708 51.5859C60.8408 51.5859 63.4373 50.3436 65.0609 48.7322C66.3932 50.3436 68.494 51.5859 70.762 51.5859C74.5421 51.5859 77.9009 48.0618 77.9009 45.2879V40.5644C77.9009 40.054 77.6716 39.5804 77.2564 39.2852L43.9419 15.6677C43.6693 15.4709 43.3222 15.3725 43 15.3725ZM35.1671 52.5208C33.0292 53.9169 30.4389 54.7349 27.9292 54.7349C25.5682 54.7349 23.1824 54.0461 21.1374 52.816C19.3713 54.0522 17.2953 54.7349 15.238 54.7349C13.7569 54.7349 12.2759 54.3536 10.9249 53.7017L8 78.5H34.2748L37.5963 65.2644H48.4037L51.7252 78.5H78L75.0751 53.7017C73.7242 54.3536 72.2431 54.7349 70.762 54.7349C68.7047 54.7349 66.6287 54.0522 64.8626 52.816C62.8176 54.0461 60.4318 54.7349 58.0708 54.7349C55.5611 54.7349 52.9708 53.9169 50.8329 52.5208C48.5586 53.9292 45.7824 54.7349 43 54.7349C40.2176 54.7349 37.4414 53.9292 35.1671 52.5208Z" fill="white"/>
</svg>
