<svg width="86" height="86" viewBox="0 0 86 86" fill="none" xmlns="http://www.w3.org/2000/svg">
<path d="M75.1646 65.902L68.409 22.9807L59.8889 14.3335H26.111L17.5909 22.9807L10.8353 65.902C10.2808 68.8893 12.499 71.6668 15.4735 71.6668H70.5769C73.5009 71.6668 75.7192 68.8893 75.1646 65.902ZM57.9228 28.693V30.1604C57.9228 38.4932 51.3184 45.3061 43.2016 45.3061C35.0848 45.3061 28.4805 38.4932 28.4805 30.1604V28.693C27.9764 28.2214 27.6739 27.5925 27.6739 26.8588C27.6739 26.0727 28.0268 25.339 28.6317 24.9197C29.0351 24.6053 29.4888 24.4481 30.0434 24.4481C30.5475 24.4481 31.0517 24.6577 31.455 24.9197C32.0095 25.3914 32.4129 26.0727 32.4129 26.8588C32.4129 27.6449 32.06 28.3786 31.455 28.7978C31.1021 29.0599 30.6988 29.2171 30.245 29.2695V30.1604C30.245 36.9733 36.5973 43.5242 43.2016 43.5242C49.8564 43.5242 56.1582 36.9733 56.1582 30.1604V29.2695C55.7045 29.2171 55.3012 29.0599 54.9483 28.7978C54.3937 28.3262 53.9904 27.6449 53.9904 26.8588C53.9904 26.0727 54.3433 25.339 54.9483 24.9197C55.3516 24.6053 55.8053 24.4481 56.3599 24.4481C56.864 24.4481 57.3682 24.6577 57.7715 24.9197C58.3261 25.3914 58.7294 26.0727 58.7294 26.8588C58.7294 27.5401 58.4269 28.2214 57.9228 28.693ZM23.5399 21.0416L27.2705 17.2683H58.7798L62.5105 21.0416H23.5399Z" fill="white"/>
</svg>
