<svg width="1999" height="165" viewBox="0 0 1999 165" fill="none" xmlns="http://www.w3.org/2000/svg">
<mask id="mask0_3749_731" style="mask-type:alpha" maskUnits="userSpaceOnUse" x="0" y="0" width="1999" height="165">
<rect width="1999" height="165" fill="#011F2C"/>
</mask>
<g mask="url(#mask0_3749_731)">
<path d="M2045.2 407.991L2030.46 252.436C2022.7 170.719 1960.38 104.727 1879.16 92.3198L1288.6 2.05508C1259.94 -2.31463 1230.64 0.300815 1203.23 9.74193L810.118 144.948C773.386 157.578 733.526 157.929 696.57 145.968L361.223 37.3317C316.098 22.7235 267.047 26.5829 224.761 48.0486L43.9713 139.94C-31.6318 178.374 -69.9279 264.525 -47.7481 346.337L4.30282 538.54C19.8128 595.825 62.7045 641.691 118.84 661.052L520.886 799.606C561.831 813.704 606.51 812.524 646.626 796.257L850.585 713.552C896.572 694.925 948.208 696.169 993.238 716.997L1404.51 907.414C1456.65 931.559 1517.23 929.23 1567.36 901.162L1954.38 684.591C2010.96 652.918 2046 593.178 2046 528.366V424.896C2046 419.25 2045.74 413.637 2045.2 408.023V407.991Z" fill="#011720"/>
</g>
</svg>
