<svg width="86" height="86" viewBox="0 0 86 86" fill="none" xmlns="http://www.w3.org/2000/svg">
<path d="M52.4252 52.6853V53.9277H54.9472V52.6853H52.4252ZM52.4252 52.6853V53.9277H54.9472V52.6853H52.4252ZM67.7253 55.509V39.6396C67.7253 32.5237 64.811 25.9726 60.1033 21.2852C57.9176 19.0827 55.2835 17.2755 52.3692 15.9201C52.4252 15.6942 52.4252 15.3554 52.4252 15.0165C52.4252 10.6679 47.6615 7.1665 41.8329 7.1665C36.0043 7.1665 31.2405 10.7244 31.2405 15.0165C31.2405 15.2989 31.2405 15.5813 31.2965 15.8636C22.1613 19.8734 15.7162 29.0788 15.7162 39.6396V55.5655C14.147 56.5256 13.1382 58.2763 13.1382 60.2529V72.1127C13.1382 75.1623 19.8075 75.84 19.8075 74.8235V44.4399C19.8075 32.8061 29.2789 23.3748 40.8801 23.3748H41.7768C53.378 23.3748 62.8495 32.8061 62.8495 44.4399V74.8235C62.8495 75.84 70.4715 75.1623 70.4715 72.1127V60.2529C70.4155 58.2198 69.2946 56.4691 67.7253 55.509ZM50.0153 15.0165C47.3813 14.1694 44.6351 13.6611 41.7208 13.6611C38.9186 13.6611 36.2284 14.1129 33.7064 14.96C33.7625 12.0233 37.4614 9.59493 41.8889 9.59493C46.2604 9.59493 50.0153 12.0798 50.0153 15.0165ZM41.7208 25.0126H40.8241C30.1196 25.0126 21.3767 33.7097 21.3767 44.4399V73.1857C21.3767 76.2918 23.8987 78.8332 27.0372 78.8332H55.4516C58.5901 78.8332 61.1121 76.2918 61.1121 73.1857V44.4399C61.1682 33.7097 52.4813 25.0126 41.7208 25.0126ZM55.7879 54.7749H51.5846V47.4331H55.7879V54.7749ZM57.3011 45.7389C57.3011 46.2471 56.9088 46.6425 56.4044 46.6425H27.3174C26.813 46.6425 26.3646 46.2471 26.3646 45.7389C26.3646 45.2306 26.813 44.8353 27.3174 44.8353H56.4044C56.9088 44.8353 57.3011 45.2306 57.3011 45.7389ZM54.8912 52.6853H52.4252V53.9277H54.9472V52.6853H54.8912Z" fill="white"/>
</svg>
