<svg width="24" height="25" viewBox="0 0 24 25" fill="none" xmlns="http://www.w3.org/2000/svg">
<path d="M16.5 9.12981C16.09 9.12981 15.75 8.78981 15.75 8.37981V6.99981C15.75 5.94981 15.3 4.92981 14.52 4.21981C13.73 3.49981 12.71 3.16981 11.63 3.26981C9.83 3.43981 8.25 5.27981 8.25 7.19981V8.16981C8.25 8.57981 7.91 8.91981 7.5 8.91981C7.09 8.91981 6.75 8.57981 6.75 8.16981V7.18981C6.75 4.49981 8.92 2.01981 11.49 1.76981C12.99 1.62981 14.43 2.09981 15.53 3.10981C16.0712 3.60312 16.5037 4.20381 16.7999 4.87358C17.096 5.54335 17.2493 6.26749 17.25 6.99981V8.37981C17.25 8.78981 16.91 9.12981 16.5 9.12981Z" fill="#76AC64"/>
<path d="M14.9999 23.25H8.99994C4.37994 23.25 3.51994 21.1 3.29994 19.01L2.54994 13.02C2.43994 11.94 2.39994 10.39 3.44994 9.23C4.34994 8.23 5.83994 7.75 7.99994 7.75H15.9999C18.1699 7.75 19.6599 8.24 20.5499 9.23C21.5899 10.39 21.5599 11.94 21.4499 13L20.6999 19.01C20.4799 21.1 19.6199 23.25 14.9999 23.25ZM7.99994 9.25C6.30994 9.25 5.14994 9.58 4.55994 10.24C4.06994 10.78 3.90994 11.61 4.03994 12.85L4.78994 18.84C4.95994 20.44 5.39994 21.76 8.99994 21.76H14.9999C18.5999 21.76 19.0399 20.45 19.2099 18.86L19.9599 12.85C20.0899 11.63 19.9299 10.8 19.4399 10.25C18.8499 9.58 17.6899 9.25 15.9999 9.25H7.99994Z" fill="#76AC64"/>
<path d="M15.4199 13.6479C14.8599 13.6479 14.4099 13.1979 14.4099 12.6479C14.4099 12.0979 14.8599 11.6479 15.4099 11.6479C15.9599 11.6479 16.4099 12.0979 16.4099 12.6479C16.4099 13.1979 15.9699 13.6479 15.4199 13.6479Z" fill="#76AC64"/>
<path d="M8.41991 13.6479C7.85991 13.6479 7.40991 13.1979 7.40991 12.6479C7.40991 12.0979 7.85991 11.6479 8.40991 11.6479C8.95991 11.6479 9.40991 12.0979 9.40991 12.6479C9.40991 13.1979 8.96991 13.6479 8.41991 13.6479Z" fill="#76AC64"/>
</svg>
