<svg width="24" height="24" viewBox="0 0 24 24" fill="none" xmlns="http://www.w3.org/2000/svg">
<path d="M18.9998 9C18.9998 10.45 18.5698 11.78 17.8298 12.89C17.2876 13.6987 16.5822 14.3852 15.759 14.9053C14.9359 15.4254 14.013 15.7676 13.0498 15.91C12.7098 15.97 12.3598 16 11.9998 16C11.6398 16 11.2898 15.97 10.9498 15.91C9.98657 15.7676 9.06375 15.4254 8.24057 14.9053C7.4174 14.3852 6.71205 13.6987 6.1698 12.89C5.40211 11.7383 4.9948 10.3841 4.9998 9C4.9998 5.13 8.1298 2 11.9998 2C15.8698 2 18.9998 5.13 18.9998 9Z" stroke="#76AC64" stroke-width="1.5" stroke-linecap="round" stroke-linejoin="round"/>
<path d="M21.2499 18.4704L19.5999 18.8604C19.2299 18.9504 18.9399 19.2304 18.8599 19.6004L18.5099 21.0704C18.467 21.2508 18.3747 21.4158 18.2434 21.5468C18.1121 21.6778 17.947 21.7697 17.7664 21.8123C17.5859 21.8548 17.3971 21.8463 17.2211 21.7877C17.0451 21.7291 16.8889 21.6227 16.7699 21.4804L11.9999 16.0004L7.22992 21.4904C7.11093 21.6327 6.95472 21.7391 6.77874 21.7977C6.60276 21.8563 6.41395 21.8648 6.23341 21.8223C6.05287 21.7797 5.88772 21.6878 5.75642 21.5568C5.62512 21.4258 5.53285 21.2608 5.48992 21.0804L5.13992 19.6104C5.09737 19.4305 5.00563 19.2661 4.87494 19.1354C4.74425 19.0047 4.57977 18.9129 4.39992 18.8704L2.74992 18.4804C2.57704 18.439 2.41829 18.3523 2.28991 18.2293C2.16153 18.1064 2.06814 17.9515 2.0193 17.7806C1.97047 17.6096 1.96794 17.4288 2.01197 17.2566C2.05601 17.0843 2.14503 16.9269 2.26992 16.8004L6.16992 12.9004C6.71216 13.7091 7.41751 14.3956 8.24069 14.9157C9.06386 15.4357 9.98668 15.778 10.9499 15.9204C11.2899 15.9804 11.6399 16.0104 11.9999 16.0104C12.3599 16.0104 12.7099 15.9804 13.0499 15.9204C15.0399 15.6304 16.7499 14.5004 17.8299 12.9004L21.7299 16.8004C22.2799 17.3404 22.0099 18.2904 21.2499 18.4704Z" stroke="#76AC64" stroke-width="1.5" stroke-linecap="round" stroke-linejoin="round"/>
<path d="M12.58 5.98L13.17 7.16C13.25 7.32 13.46 7.48 13.65 7.51L14.72 7.69C15.4 7.8 15.56 8.3 15.07 8.79L14.24 9.62C14.1 9.76 14.02 10.03 14.07 10.23L14.31 11.26C14.5 12.07 14.07 12.39 13.35 11.96L12.35 11.37C12.2484 11.3158 12.1351 11.2875 12.02 11.2875C11.9049 11.2875 11.7915 11.3158 11.69 11.37L10.69 11.96C9.96997 12.38 9.53997 12.07 9.72997 11.26L9.96997 10.23C10.01 10.04 9.93997 9.76 9.79997 9.62L8.96997 8.79C8.47997 8.3 8.63997 7.81 9.31997 7.69L10.39 7.51C10.57 7.48 10.78 7.32 10.86 7.16L11.45 5.98C11.74 5.34 12.26 5.34 12.58 5.98Z" stroke="#76AC64" stroke-width="1.5" stroke-linecap="round" stroke-linejoin="round"/>
</svg>
