<svg width="24" height="24" viewBox="0 0 24 24" fill="none" xmlns="http://www.w3.org/2000/svg">
<path d="M17 2.25H7C4.38 2.25 2.25 4.38 2.25 7V17C2.25 19.62 4.38 21.75 7 21.75H17C19.62 21.75 21.75 19.62 21.75 17V7C21.75 4.38 19.62 2.25 17 2.25ZM20.25 7V11.25H12.75V3.75H17C18.79 3.75 20.25 5.21 20.25 7ZM7 3.75H11.25V11.25H3.75V7C3.75 5.21 5.21 3.75 7 3.75ZM3.75 17V12.75H11.25V20.25H7C5.21 20.25 3.75 18.79 3.75 17ZM17 20.25H12.75V12.75H20.25V17C20.25 18.79 18.79 20.25 17 20.25Z" fill="#76AC64"/>
</svg>
