<svg width="24" height="24" viewBox="0 0 24 24" fill="none" xmlns="http://www.w3.org/2000/svg">
<path d="M3.5 9H3.65L5.1 13.6C5.15 13.8 5.35 13.95 5.6 13.95C5.65 13.95 5.7 13.95 5.75 13.95C6 13.85 6.15 13.6 6.1 13.3L4.7 9H5.2L6.5 13.15C6.55 13.35 6.75 13.5 7 13.5C7.05 13.5 7.1 13.5 7.15 13.5C7.4 13.4 7.55 13.15 7.5 12.85L6.25 9H7.5C8.35 9 9 8.35 9 7.5C9 6.65 8.35 6 7.5 6H3.5C2.65 6 2 6.65 2 7.5C2 8.35 2.65 9 3.5 9ZM3.5 7H7.5C7.8 7 8 7.2 8 7.5C8 7.8 7.8 8 7.5 8H3.5C3.2 8 3 7.8 3 7.5C3 7.2 3.2 7 3.5 7Z" fill="#76AC64"/>
<path d="M13 19.5004H12.4L10.3 18.3004C10.35 18.1004 10.4 17.9504 10.4 17.7504C10.4 16.6004 9.44995 15.6504 8.29995 15.6504C7.14995 15.6504 6.19995 16.6004 6.19995 17.7504C6.19995 18.9004 7.14995 19.8504 8.29995 19.8504C8.89995 19.8504 9.44995 19.6004 9.84995 19.2004L11.1 19.9004C11.1 19.9504 11.1 20.0004 11.1 20.0004C11.1 20.3004 11.3 20.5004 11.6 20.5004H13.1C13.4 20.5004 13.6 20.3004 13.6 20.0004C13.6 19.7004 13.3 19.5004 13 19.5004ZM8.24995 18.8504C7.64995 18.8504 7.14995 18.3504 7.14995 17.7504C7.14995 17.1504 7.64995 16.6504 8.24995 16.6504C8.84995 16.6504 9.34995 17.1504 9.34995 17.7504V17.8004L8.49995 17.3004C8.24995 17.1504 7.94995 17.2504 7.79995 17.5004C7.64995 17.7504 7.74995 18.0504 7.99995 18.2004L8.84995 18.7004C8.69995 18.8004 8.49995 18.8504 8.24995 18.8504Z" fill="#76AC64"/>
<path d="M20.75 2C20.05 2 19.5 2.55 19.5 3.25V3.5C19.5 3.8 19.3 4 19 4H15.25C14.55 4 14 4.55 14 5.25C14 5.95 14.55 6.5 15.25 6.5H16.85L14.85 16.05C14.8 16.3 14.95 16.6 15.25 16.65C15.3 16.65 15.3 16.65 15.35 16.65C15.6 16.65 15.8 16.5 15.85 16.25L17.9 6.5H18.4L16.25 16.65C16.2 16.9 16.35 17.2 16.65 17.25C16.7 17.25 16.7 17.25 16.75 17.25C17 17.25 17.2 17.1 17.25 16.85L19.4 6.5H19.5C20.9 6.5 22 5.4 22 4V3.25C22 2.55 21.45 2 20.75 2ZM21 4C21 4.85 20.35 5.5 19.5 5.5H15.25C15.1 5.5 15 5.4 15 5.25C15 5.1 15.1 5 15.25 5H19C19.85 5 20.5 4.35 20.5 3.5V3.25C20.5 3.1 20.6 3 20.75 3C20.9 3 21 3.1 21 3.25V4Z" fill="#76AC64"/>
<path d="M21.5 20.9999H19.3C19.45 20.7499 19.5 20.4499 19.5 20.1499C19.5 19.4499 19.1 18.8499 18.5 18.4999L9.9 14.1999C8.65 13.5999 7.2 13.5999 6 14.2999C4.8 14.9999 4.1 16.1499 4 17.4499C4 17.5999 4 17.7499 4 17.8499C4.05 19.0999 4.65 20.2499 5.6 20.9999H2.5C2.2 20.9999 2 21.1999 2 21.4999C2 21.7999 2.2 21.9999 2.5 21.9999H8.4H17.65H21.5C21.8 21.9999 22 21.7999 22 21.4999C22 21.1999 21.8 20.9999 21.5 20.9999ZM8.4 20.9999C6.55 20.9999 5.05 19.5999 5 17.8499C5 17.7499 5 17.6499 5 17.5499C5.05 16.5999 5.6 15.7499 6.45 15.2499C6.95 14.9499 7.5 14.8499 8 14.8499C8.5 14.8499 8.95 14.9499 9.4 15.1999L18 19.4999C18.3 19.6499 18.45 19.8999 18.45 20.2499C18.45 20.6999 18.1 21.0999 17.6 21.0999H8.4V20.9999Z" fill="#76AC64"/>
</svg>
