<svg width="25" height="24" viewBox="0 0 25 24" fill="none" xmlns="http://www.w3.org/2000/svg">
<path d="M19.6667 13.75C20.6267 13.75 21.4167 12.96 21.4167 12V11C21.4167 10.04 20.6267 9.25 19.6667 9.25H19.4167V9C19.4167 5.28 16.3867 2.25 12.6667 2.25C8.94675 2.25 5.91675 5.28 5.91675 9V9.25H5.66675C4.70675 9.25 3.91675 10.04 3.91675 11V12C3.91675 12.96 4.70675 13.75 5.66675 13.75C5.80675 13.75 5.91675 13.86 5.91675 14V17C5.91675 17.14 5.80675 17.25 5.66675 17.25C4.70675 17.25 3.91675 18.04 3.91675 19V20C3.91675 20.96 4.70675 21.75 5.66675 21.75H19.6667C20.6267 21.75 21.4167 20.96 21.4167 20V19C21.4167 18.04 20.6267 17.25 19.6667 17.25C19.5267 17.25 19.4167 17.14 19.4167 17V14C19.4167 13.86 19.5267 13.75 19.6667 13.75ZM7.41675 9C7.41675 6.1 9.77675 3.75 12.6667 3.75C15.5567 3.75 17.9167 6.1 17.9167 9V9.25H16.4167V9C16.4167 6.93 14.7367 5.25 12.6667 5.25C10.5967 5.25 8.91675 6.93 8.91675 9V9.25H7.41675V9ZM14.9167 9.25H10.4167V9C10.4167 7.76 11.4267 6.75 12.6667 6.75C13.9067 6.75 14.9167 7.76 14.9167 9V9.25ZM19.6667 18.75C19.8067 18.75 19.9167 18.86 19.9167 19V20C19.9167 20.14 19.8067 20.25 19.6667 20.25H5.66675C5.52675 20.25 5.41675 20.14 5.41675 20V19C5.41675 18.86 5.52675 18.75 5.66675 18.75C6.62675 18.75 7.41675 17.96 7.41675 17V14C7.41675 13.04 6.62675 12.25 5.66675 12.25C5.52675 12.25 5.41675 12.14 5.41675 12V11C5.41675 10.86 5.52675 10.75 5.66675 10.75H19.6667C19.8067 10.75 19.9167 10.86 19.9167 11V12C19.9167 12.14 19.8067 12.25 19.6667 12.25C18.7067 12.25 17.9167 13.04 17.9167 14V17C17.9167 17.96 18.7067 18.75 19.6667 18.75Z" fill="#76AC64"/>
<path d="M12.6667 12.25C11.4267 12.25 10.4167 13.26 10.4167 14.5C10.4167 15.48 11.0467 16.3 11.9167 16.61V18C11.9167 18.41 12.2567 18.75 12.6667 18.75C13.0767 18.75 13.4167 18.41 13.4167 18V16.61C14.2867 16.3 14.9167 15.47 14.9167 14.5C14.9167 13.26 13.9067 12.25 12.6667 12.25ZM12.6667 15.25C12.2567 15.25 11.9167 14.91 11.9167 14.5C11.9167 14.09 12.2567 13.75 12.6667 13.75C13.0767 13.75 13.4167 14.09 13.4167 14.5C13.4167 14.91 13.0767 15.25 12.6667 15.25Z" fill="#76AC64"/>
</svg>
