<svg width="86" height="86" viewBox="0 0 86 86" fill="none" xmlns="http://www.w3.org/2000/svg">
<path d="M36.7291 7.1665C33.2246 7.1665 30.2375 9.41325 29.1285 12.5415H27.7708C20.3604 12.5415 14.3333 18.5687 14.3333 25.979V60.0207C14.3333 64.9282 16.9846 69.2161 20.9225 71.5615L18.5395 74.424C18.3133 74.6951 18.1428 75.0081 18.0376 75.3452C17.9324 75.6822 17.8947 76.0366 17.9265 76.3883C17.9583 76.7399 18.0591 77.0818 18.2231 77.3945C18.387 77.7072 18.611 77.9845 18.8821 78.2106C19.1533 78.4367 19.4663 78.6072 19.8034 78.7123C20.1404 78.8175 20.4949 78.8552 20.8465 78.8233C21.1981 78.7914 21.54 78.6906 21.8527 78.5266C22.1653 78.3625 22.4426 78.1385 22.6687 77.8674L26.399 73.3882H26.4025C26.8526 73.4339 27.3088 73.4582 27.7708 73.4582H58.2291C58.6911 73.4582 59.1472 73.4339 59.5973 73.3882H59.6008L63.3311 77.8674C63.5572 78.1385 63.8345 78.3625 64.1471 78.5266C64.4598 78.6906 64.8017 78.7914 65.1533 78.8233C65.5049 78.8552 65.8594 78.8175 66.1964 78.7123C66.5335 78.6072 66.8465 78.4367 67.1177 78.2106C67.3889 77.9845 67.6128 77.7072 67.7768 77.3945C67.9408 77.0818 68.0415 76.7399 68.0733 76.3883C68.1052 76.0366 68.0674 75.6822 67.9622 75.3452C67.8571 75.0081 67.6865 74.6951 67.4604 74.424L65.0773 71.5615C69.0153 69.2161 71.6666 64.9282 71.6666 60.0207V25.979C71.6666 18.5687 65.6394 12.5415 58.2291 12.5415H56.8713C55.7623 9.41325 52.7753 7.1665 49.2708 7.1665H36.7291ZM21.4999 30.4582H64.4999C65.4889 30.4582 66.2916 31.2608 66.2916 32.2498V44.7915C66.2916 45.7805 65.4889 46.5832 64.4999 46.5832H21.4999C20.5109 46.5832 19.7083 45.7805 19.7083 44.7915V32.2498C19.7083 31.2608 20.5109 30.4582 21.4999 30.4582ZM28.6666 55.5415C30.6464 55.5415 32.2499 57.145 32.2499 59.1248C32.2499 61.1046 30.6464 62.7082 28.6666 62.7082C26.6868 62.7082 25.0833 61.1046 25.0833 59.1248C25.0833 57.145 26.6868 55.5415 28.6666 55.5415ZM57.3333 55.5415C59.313 55.5415 60.9166 57.145 60.9166 59.1248C60.9166 61.1046 59.313 62.7082 57.3333 62.7082C55.3535 62.7082 53.7499 61.1046 53.7499 59.1248C53.7499 57.145 55.3535 55.5415 57.3333 55.5415Z" fill="white"/>
</svg>
