<svg width="25" height="24" viewBox="0 0 25 24" fill="none" xmlns="http://www.w3.org/2000/svg">
<path d="M21.7499 11.3C20.9499 11.2 20.1499 11.4 19.4999 11.95L19.3499 12.1C18.6499 12.65 17.6499 12.65 16.9999 12.1C16.4999 11.65 15.8499 11.45 15.1999 11.45V5C15.1999 4.45 15.6499 4 16.1999 4C16.7499 4 17.1999 4.45 17.1999 5C17.1999 5.3 17.3999 5.5 17.6999 5.5C17.9999 5.5 18.1999 5.3 18.1999 5C18.1999 3.9 17.2999 3 16.1999 3C15.0999 3 14.1999 3.9 14.1999 5V6.5H10.1999V5C10.1999 4.45 10.6499 4 11.1999 4C11.7499 4 12.1999 4.45 12.1999 5C12.1999 5.3 12.3999 5.5 12.6999 5.5C12.9999 5.5 13.1999 5.3 13.1999 5C13.1999 3.9 12.2999 3 11.1999 3C10.0999 3 9.1999 3.9 9.1999 5V11.45C8.5499 11.45 7.8999 11.65 7.3999 12.1C6.7499 12.65 5.6999 12.65 5.0499 12.1L4.8999 11.95C4.2999 11.45 3.4499 11.2 2.6499 11.3C2.3999 11.35 2.1999 11.6 2.2499 11.85C2.2999 12.1 2.5499 12.3 2.7999 12.25C3.2999 12.15 3.8499 12.3 4.2499 12.65L4.3999 12.8C5.4499 13.65 6.9999 13.65 8.0499 12.8C8.6999 12.25 9.7499 12.25 10.3999 12.8C10.8999 13.25 11.5499 13.45 12.1999 13.45C12.8499 13.45 13.4999 13.2 13.9999 12.8C14.6499 12.25 15.6999 12.25 16.3499 12.8C17.3999 13.7 18.9499 13.7 19.9999 12.8L20.1499 12.65C20.5499 12.3 21.0999 12.15 21.5999 12.25C21.8499 12.3 22.1499 12.1 22.1499 11.85C22.2499 11.6 22.0499 11.35 21.7499 11.3ZM14.1999 7.5V9H10.1999V7.5H14.1999ZM13.3999 12.05C12.7499 12.6 11.6999 12.6 11.0499 12.05C10.7999 11.85 10.5499 11.7 10.2499 11.6V10H14.2499V11.6C13.8999 11.7 13.6499 11.85 13.3999 12.05Z" fill="#76AC64"/>
<path d="M21.7499 15.2504C20.9499 15.1504 20.1499 15.3504 19.4999 15.9004L19.3999 16.0004C18.6999 16.5504 17.6999 16.5504 17.0499 16.0004C15.9999 15.1504 14.4499 15.1504 13.3999 16.0004C12.7499 16.5504 11.6999 16.5504 11.0499 16.0004C9.99992 15.1504 8.44992 15.1504 7.39992 16.0004C6.74992 16.5504 5.69992 16.5504 5.04992 16.0004L4.89992 15.8504C4.29992 15.3504 3.44992 15.1004 2.64992 15.2004C2.34992 15.2504 2.14992 15.5004 2.19992 15.8004C2.24992 16.0504 2.49992 16.2504 2.74992 16.2004C3.24992 16.1004 3.79992 16.2504 4.19992 16.6004L4.34992 16.7504C5.39992 17.6004 6.94992 17.6004 7.99992 16.7504C8.64992 16.2004 9.69992 16.2004 10.3499 16.7504C10.8499 17.2004 11.4999 17.4004 12.1499 17.4004C12.7999 17.4004 13.4499 17.1504 13.9499 16.7504C14.5999 16.2004 15.6499 16.2004 16.2999 16.7504C17.3499 17.6504 18.8999 17.6504 19.9499 16.7504L20.0999 16.6004C20.4999 16.2504 21.0499 16.1004 21.5499 16.2004C21.7999 16.2504 22.0999 16.0504 22.0999 15.8004C22.2499 15.5004 22.0499 15.2504 21.7499 15.2504Z" fill="#76AC64"/>
<path d="M19.5499 19.45L19.3999 19.6C18.6999 20.15 17.6999 20.15 17.0499 19.6C15.9999 18.75 14.4499 18.75 13.3999 19.6C12.7499 20.15 11.6999 20.15 11.0499 19.6C9.9999 18.75 8.4499 18.75 7.3999 19.6C6.7499 20.15 5.6999 20.15 5.0499 19.6L4.8999 19.45C4.2999 18.95 3.4499 18.7 2.6499 18.8C2.3999 18.85 2.1999 19.1 2.2499 19.35C2.2999 19.6 2.5499 19.8 2.7999 19.75C3.2999 19.65 3.8499 19.8 4.2499 20.15L4.3999 20.3C5.4499 21.15 6.9999 21.15 8.0499 20.3C8.6999 19.75 9.7499 19.75 10.3999 20.3C10.8999 20.75 11.5499 20.95 12.1999 20.95C12.8499 20.95 13.4999 20.7 13.9999 20.3C14.6499 19.75 15.6999 19.75 16.3499 20.3C17.3999 21.2 18.9499 21.2 19.9999 20.3L20.1499 20.15C20.5499 19.8 21.0999 19.65 21.5999 19.75C21.8499 19.8 22.1499 19.6 22.1499 19.35C22.1999 19.1 21.9999 18.8 21.7499 18.8C20.9499 18.7 20.1499 18.9 19.5499 19.45Z" fill="#76AC64"/>
</svg>
