<svg width="16" height="16" viewBox="0 0 16 16" fill="none" xmlns="http://www.w3.org/2000/svg">
<path d="M7.99479 3.83984C6.76887 3.85968 4.66286 3.91829 4.33166 4.09109C3.72494 4.40853 3.33135 5.48937 2.98479 6.44297C2.95391 6.5278 2.92584 6.6033 2.89604 6.68422C2.77238 6.49143 2.59004 6.39984 2.51666 6.39984C2.34994 6.39984 1.78378 6.57545 1.73354 6.61609C1.6833 6.65673 1.59979 7.04231 1.59979 7.15047C1.59979 7.25863 1.82179 7.35297 1.94979 7.35297C2.03024 7.35297 2.31834 7.35537 2.59166 7.35734C2.52253 7.42365 2.40641 7.51681 2.30291 7.59672C1.84691 7.94808 1.27979 8.38512 1.27979 8.95984C1.27979 9.04688 1.28157 9.15568 1.28541 9.27984H1.27979V13.7598C1.27979 14.1128 1.56683 14.3998 1.91979 14.3998H3.19979C3.55275 14.3998 3.83979 14.1128 3.83979 13.7598V13.2761C4.85163 13.3641 6.23307 13.4398 7.99979 13.4398C9.7665 13.4398 11.1479 13.3641 12.1598 13.2761V13.7598C12.1598 14.1128 12.4468 14.3998 12.7998 14.3998H14.0798C14.4327 14.3998 14.7198 14.1128 14.7198 13.7598V9.27984H14.7142C14.718 9.15568 14.7198 9.04688 14.7198 8.95984C14.7198 8.38512 14.153 7.94808 13.6973 7.59672C13.5943 7.51718 13.4774 7.42364 13.4079 7.35734C13.6812 7.35537 13.9693 7.35297 14.0498 7.35297C14.1778 7.35297 14.3998 7.25863 14.3998 7.15047C14.3998 7.04231 14.3163 6.65673 14.266 6.61609C14.2158 6.57545 13.6496 6.39984 13.4829 6.39984C13.4096 6.39984 13.2278 6.49127 13.1042 6.68359C13.0744 6.60287 13.0454 6.52741 13.0148 6.44297C12.6679 5.48937 12.2746 4.40823 11.6679 4.09047C11.337 3.91767 9.23094 3.85936 7.99479 3.83984ZM7.99479 4.47984C9.47415 4.50352 11.147 4.57893 11.3717 4.65797C11.7582 4.86021 12.1527 5.94397 12.4135 6.66109C12.4209 6.68093 12.4274 6.7 12.4348 6.71984H3.56479C3.57215 6.7 3.57868 6.68093 3.58604 6.66109C3.84684 5.94397 4.24138 4.86036 4.61354 4.66484C4.85258 4.57908 6.52567 4.50352 7.99479 4.47984ZM13.7848 8.63797C14.0235 8.59957 14.0534 9.02934 14.0723 9.15734C14.1027 9.36086 14.0566 9.87259 13.6173 9.91547C13.1725 9.95867 13.297 9.67297 12.7623 9.67297C12.5946 9.67297 12.3665 9.70075 12.1873 9.59547C11.8746 9.41243 11.6992 9.32422 11.6992 9.32422C12.1132 8.9783 12.1192 8.90677 13.7848 8.63797ZM2.21479 8.64234C3.88039 8.91114 3.88633 8.98267 4.30041 9.32859C4.30041 9.32859 4.12492 9.41743 3.81228 9.60047C3.63308 9.70575 3.40497 9.67734 3.23729 9.67734C2.70257 9.67734 2.82709 9.96304 2.38229 9.91984C1.94293 9.87696 1.89689 9.36524 1.92729 9.16172C1.94617 9.03372 1.97607 8.60394 2.21479 8.64234ZM7.99979 9.27984C7.99979 9.27984 10.6497 9.27209 11.1998 9.64297C11.1998 9.64297 8.89573 9.71622 8.58853 9.84422C8.28166 9.97222 7.99979 10.283 7.99979 10.283C7.99979 10.283 7.71792 9.97222 7.41104 9.84422C7.10384 9.71622 4.79979 9.64297 4.79979 9.64297C5.34987 9.27209 7.99979 9.27984 7.99979 9.27984ZM2.87979 11.1998C3.10251 11.1998 4.45995 11.8398 5.11979 11.8398H7.97354H7.99979H10.8535C11.5137 11.8398 12.8708 11.1998 13.0935 11.1998C13.0935 11.1998 13.3079 11.9719 12.496 12.6023C11.4797 12.7031 9.98794 12.7998 7.99979 12.7998C5.99243 12.7998 4.4905 12.701 3.47354 12.5992C2.6665 11.9695 2.87979 11.1998 2.87979 11.1998Z" fill="#D7CFC5"/>
</svg>
