<svg width="86" height="86" viewBox="0 0 86 86" fill="none" xmlns="http://www.w3.org/2000/svg">
<path d="M24.1876 8.9585C17.7662 8.9585 12.5417 14.183 12.5417 20.6043V65.396C12.5417 71.8173 17.7662 77.0418 24.1876 77.0418H61.8126C68.2339 77.0418 73.4584 71.8173 73.4584 65.396V20.6043C73.4584 14.183 68.2339 8.9585 61.8126 8.9585H24.1876ZM25.9792 17.9168C27.4627 17.9168 28.6667 19.1208 28.6667 20.6043C28.6667 22.0878 27.4627 23.2918 25.9792 23.2918C24.4957 23.2918 23.2917 22.0878 23.2917 20.6043C23.2917 19.1208 24.4957 17.9168 25.9792 17.9168ZM34.9376 17.9168C36.4211 17.9168 37.6251 19.1208 37.6251 20.6043C37.6251 22.0878 36.4211 23.2918 34.9376 23.2918C33.4541 23.2918 32.2501 22.0878 32.2501 20.6043C32.2501 19.1208 33.4541 17.9168 34.9376 17.9168ZM59.1251 17.9168C61.1031 17.9168 62.7084 19.5222 62.7084 21.5002C62.7084 23.4782 61.1031 25.0835 59.1251 25.0835C57.1471 25.0835 55.5417 23.4782 55.5417 21.5002C55.5417 19.5222 57.1471 17.9168 59.1251 17.9168ZM43.0001 31.3543C50.8687 31.3543 57.344 37.3241 58.1453 44.9808C58.0921 45.0001 58.0396 45.0211 57.9878 45.0438C52.0594 47.8144 49.1181 46.4998 44.5853 44.9388C42.3189 44.1583 39.6991 43.3284 36.6138 43.1156C34.0705 42.9402 31.2048 43.1972 27.9704 44.2319C29.1038 36.9412 35.3919 31.3543 43.0001 31.3543ZM34.4897 48.3297C37.6103 48.1673 40.0369 49.056 42.8356 50.0199C46.7531 51.369 51.526 52.9047 57.5819 50.9682C55.6979 57.24 49.8851 61.8127 43.0001 61.8127C35.7232 61.8127 29.6463 56.7036 28.1383 49.8799C30.6217 48.8895 32.6797 48.4239 34.4897 48.3297Z" fill="white"/>
</svg>
