<svg width="25" height="24" viewBox="0 0 25 24" fill="none" xmlns="http://www.w3.org/2000/svg">
<path d="M21.97 7.89999L21.07 6.53999C20.82 6.16999 20.79 5.68999 20.99 5.29999L21.47 4.32999C21.59 4.09999 21.57 3.81999 21.44 3.59999C21.3 3.37999 21.06 3.23999 20.8 3.23999H18.83C17.52 3.23999 16.33 3.61999 15.39 4.32999C14.93 4.67999 14.53 5.08999 14.19 5.54999C13.8 6.08999 13.5 6.68999 13.31 7.32999C13.14 7.86999 12.66 8.23999 12.11 8.23999H4.80005C3.84005 8.23999 3.05005 9.02999 3.05005 9.98999V10.99C3.05005 11.95 3.84005 12.74 4.80005 12.74C4.94005 12.74 5.05005 12.85 5.05005 12.99V16.01C4.67005 16.03 4.30005 16.15 3.98005 16.37C3.40005 16.77 3.05005 17.43 3.05005 18.14C3.05005 18.96 3.53005 19.72 4.26005 20.06C5.90005 20.83 8.53005 21.74 11.8 21.74C14.39 21.74 17.01 21.16 19.35 20.05C20.08 19.71 20.55 18.96 20.55 18.13C20.55 17.43 20.2 16.77 19.62 16.37C19.04 15.98 18.31 15.89 17.66 16.14C17.62 16.15 17.58 16.16 17.55 16.18V10.4C17.55 10.33 17.58 10.27 17.62 10.22C17.72 10.12 17.88 10.12 17.97 10.22L18.56 10.81C19.24 11.49 20.35 11.49 21.03 10.81L21.74 10.1C22.33 9.50999 22.42 8.57999 21.96 7.88999L21.97 7.89999ZM18.21 17.55C18.4 17.48 18.61 17.5 18.78 17.62C18.96 17.74 19.06 17.93 19.06 18.14C19.06 18.39 18.93 18.6 18.73 18.7C16.58 19.71 14.19 20.24 11.81 20.24C8.82005 20.24 6.41005 19.4 4.91005 18.7C4.70005 18.6 4.56005 18.38 4.56005 18.14C4.56005 17.93 4.66005 17.73 4.84005 17.61C4.90005 17.57 5.02005 17.5 5.18005 17.5C5.25005 17.5 5.32005 17.51 5.39005 17.54C7.45005 18.34 9.61005 18.74 11.8 18.74C13.99 18.74 16.18 18.33 18.2 17.54L18.21 17.55ZM13.06 17.18C11.89 17.27 10.71 17.22 9.55005 17.06C9.55005 17.04 9.56005 17.02 9.56005 17V15C9.56005 14.86 9.67005 14.75 9.81005 14.75H12.81C12.95 14.75 13.06 14.86 13.06 15V17.18ZM20.7 9.04999L19.99 9.75999C19.89 9.85999 19.73 9.85999 19.64 9.75999L19.05 9.16999C18.37 8.48999 17.26 8.48999 16.58 9.16999C16.25 9.49999 16.07 9.94999 16.07 10.41V16.67C15.58 16.8 15.07 16.91 14.57 17V15C14.57 14.04 13.78 13.25 12.82 13.25H9.82005C8.86005 13.25 8.07005 14.04 8.07005 15V16.79C7.56005 16.67 7.06005 16.53 6.57005 16.36V13C6.57005 12.04 5.78005 11.25 4.82005 11.25C4.68005 11.25 4.57005 11.14 4.57005 11V9.99999C4.57005 9.85999 4.68005 9.74999 4.82005 9.74999H12.13C13.35 9.74999 14.41 8.95999 14.77 7.76999C14.92 7.28999 15.14 6.83999 15.43 6.43999C15.68 6.09999 15.98 5.78999 16.32 5.52999C17.17 4.87999 18.17 4.74999 18.85 4.74999H19.61C19.23 5.59999 19.32 6.59999 19.84 7.37999L20.74 8.73999C20.81 8.83999 20.79 8.96999 20.71 9.05999L20.7 9.04999Z" fill="#76AC64"/>
</svg>
