<svg width="21" height="21" viewBox="0 0 21 21" fill="none" xmlns="http://www.w3.org/2000/svg">
<path d="M14.4638 6.23019C14.105 5.17144 13.4488 4.14769 12.6263 3.35144C12.0838 2.82644 11.4713 2.38894 10.7975 2.04769C10.5613 1.92519 10.2813 1.96019 10.08 2.12644C9.23129 2.83519 8.45254 3.64894 7.77004 4.52394C7.08754 5.40769 6.66754 5.93269 6.37879 6.79894C5.79254 8.54019 6.22129 10.1502 6.37004 10.6752C6.53629 11.2789 6.72004 11.6727 6.87754 11.9877C7.06129 12.3727 7.18379 12.6264 7.22754 13.1777C7.25379 13.5452 7.22754 13.7814 7.19254 14.0089C7.14879 14.3327 7.10504 14.6652 7.27129 15.1114C7.58629 15.9777 8.44379 16.5902 9.85254 16.9752V18.3927C9.85254 18.7514 10.15 19.0489 10.5088 19.0489C10.8675 19.0489 11.165 18.7514 11.165 18.3927V16.9839C12.39 16.6952 13.265 16.1614 13.7113 15.3827C14.0438 14.8052 14.0263 14.3152 14.0088 13.7989C14 13.4052 13.9825 12.9064 14.105 12.1627C14.21 11.5239 14.3325 11.2089 14.455 10.8939C14.595 10.5264 14.7438 10.1414 14.8138 9.40644C14.9538 7.95394 14.6563 6.79894 14.4638 6.23894V6.23019ZM8.33004 12.0664C8.25129 11.8214 8.14629 11.6202 8.05004 11.4189C7.91004 11.1302 7.76129 10.8239 7.63004 10.3339C7.56004 10.0889 7.42879 9.55519 7.39379 8.89019L9.83504 10.0452V13.1602L8.32129 12.0664H8.33004ZM11.1563 8.23394L13.2738 6.82519C13.4138 7.28019 13.615 8.17269 13.5013 9.27519C13.4663 9.66894 13.405 9.90519 13.3263 10.1327L11.1563 11.4102V8.24269V8.23394ZM12.7313 5.60894L11.1563 6.65894V3.82394C11.3488 3.97269 11.5325 4.13019 11.7075 4.29644C12.1625 4.73394 12.4863 5.19769 12.7313 5.60894ZM8.80254 5.33769C9.12629 4.92644 9.47629 4.53269 9.84379 4.15644V8.60144L7.54254 7.51644C7.56879 7.42019 7.58629 7.32394 7.62129 7.22769C7.84004 6.58019 8.16379 6.16894 8.80254 5.34644V5.33769ZM8.48754 14.6652C8.43504 14.5339 8.44379 14.4464 8.48754 14.1927C8.50504 14.0964 8.51379 13.9739 8.52254 13.8339L9.84379 14.7877V15.6102C9.10004 15.3652 8.62754 15.0414 8.48754 14.6652ZM12.565 14.7264C12.3375 15.1289 11.8563 15.4352 11.1563 15.6452V12.9327L12.8013 11.9702C12.6613 12.8277 12.6788 13.4139 12.6875 13.8427C12.705 14.3239 12.6963 14.4902 12.5563 14.7352L12.565 14.7264Z" fill="#76AC64"/>
</svg>
