<svg width="307" height="152" viewBox="0 0 307 152" fill="none" xmlns="http://www.w3.org/2000/svg">
<path d="M101.496 110.271H102.872V114.863H109.328V110.271H110.703V121.421H109.328V116.049H102.872V121.421H101.496V110.271Z" fill="#011F2C"/>
<path d="M130.059 115.849C130.059 112.65 132.553 110.099 135.878 110.099C139.204 110.099 141.68 112.644 141.68 115.849C141.68 119.054 139.186 121.599 135.878 121.599C132.57 121.599 130.059 119.054 130.059 115.849ZM140.247 115.849C140.247 113.372 138.355 111.354 135.878 111.354C133.402 111.354 131.487 113.367 131.487 115.849C131.487 118.331 133.379 120.344 135.878 120.344C138.378 120.344 140.247 118.331 140.247 115.849Z" fill="#011F2C"/>
<path d="M161.059 110.271H162.281L164.998 114.06C165.583 114.886 166.804 116.64 166.804 116.64C166.804 116.64 168.025 114.903 168.61 114.077L171.327 110.271H172.549V121.421H171.173V112.592C171.173 112.592 170.88 113.126 170.347 113.865L166.804 118.859L163.244 113.831C162.745 113.126 162.435 112.592 162.435 112.592V121.421H161.059V110.271Z" fill="#011F2C"/>
<path d="M192.379 110.271H200.813V111.474H193.755V114.863H200.365V116.049H193.755V120.217H201.071V121.421H192.379V110.271Z" fill="#011F2C"/>
<path d="M101.496 139.739H106.61C108.468 139.739 109.792 140.616 109.792 142.405C109.792 143.333 109.242 144.159 108.536 144.469C109.792 144.727 110.893 145.896 110.893 147.461C110.893 149.646 109.224 150.89 106.679 150.89H101.496V139.739ZM106.742 144.062C107.739 144.062 108.341 143.408 108.341 142.514C108.341 141.533 107.688 140.948 106.518 140.948H102.872V144.062H106.748H106.742ZM106.587 149.691C108.324 149.691 109.442 148.917 109.442 147.49C109.442 146.148 108.427 145.254 106.931 145.254H102.866V149.697H106.587V149.691Z" fill="#011F2C"/>
<path d="M129.781 145.317C129.781 142.118 132.275 139.567 135.6 139.567C138.925 139.567 141.402 142.112 141.402 145.317C141.402 148.522 138.908 151.067 135.6 151.067C132.292 151.067 129.781 148.522 129.781 145.317ZM139.969 145.317C139.969 142.84 138.077 140.822 135.6 140.822C133.124 140.822 131.209 142.835 131.209 145.317C131.209 147.8 133.101 149.812 135.6 149.812C138.1 149.812 139.969 147.8 139.969 145.317Z" fill="#011F2C"/>
<path d="M160.646 146.452V139.739H162.022V146.401C162.022 148.465 163.157 149.789 165.273 149.789C167.389 149.789 168.524 148.465 168.524 146.401V139.739H169.9V146.452C169.9 149.244 168.162 151.067 165.267 151.067C162.372 151.067 160.641 149.244 160.641 146.452H160.646Z" fill="#011F2C"/>
<path d="M192.84 140.943H188.695V139.739H198.349V140.943H194.221V150.89H192.845V140.943H192.84Z" fill="#011F2C"/>
<path d="M217.277 139.739H218.653V150.89H217.277V139.739Z" fill="#011F2C"/>
<path d="M238.023 145.317C238.023 142.118 240.517 139.567 243.842 139.567C247.167 139.567 249.644 142.112 249.644 145.317C249.644 146.779 249.128 148.103 248.251 149.118L249.472 150.339L248.819 151.045L247.546 149.789C246.566 150.58 245.276 151.062 243.848 151.062C240.529 151.062 238.029 148.516 238.029 145.311L238.023 145.317ZM246.594 148.826L245.287 147.519L245.992 146.848L247.265 148.138C247.85 147.364 248.211 146.384 248.211 145.317C248.211 142.84 246.319 140.822 243.842 140.822C241.366 140.822 239.451 142.835 239.451 145.317C239.451 147.8 241.343 149.812 243.842 149.812C244.891 149.812 245.855 149.451 246.594 148.832V148.826Z" fill="#011F2C"/>
<path d="M268.885 146.452V139.739H270.261V146.401C270.261 148.465 271.396 149.789 273.511 149.789C275.627 149.789 276.762 148.465 276.762 146.401V139.739H278.138V146.452C278.138 149.244 276.401 151.067 273.505 151.067C270.61 151.067 268.879 149.244 268.879 146.452H268.885Z" fill="#011F2C"/>
<path d="M297.848 139.739H306.282V140.943H299.224V144.331H305.834V145.518H299.224V149.686H306.54V150.89H297.848V139.739Z" fill="#011F2C"/>
<path d="M7.45659 0.270508H13.1381V64.1831C14.1299 63.1856 16.1193 60.491 18.1087 58.3583L73.7827 0.270508H80.8857L41.1214 42.168L83.3057 92.304H76.3457L37.5726 46.1468L13.1438 71.4298V92.304H0.433594L7.4623 0.270508H7.45659Z" fill="#011F2C"/>
<path d="M145.964 0.171875H150.057L194.919 92.3028H189.134L179.399 72.409H116.759L107.025 92.3028H101.102L145.97 0.171875H145.964ZM177.146 67.467L153.159 18.6497C149.49 11.1737 148.079 7.50451 148.079 7.50451C148.079 7.50451 146.526 11.1737 142.862 18.6497L119.018 67.467H177.146Z" fill="#011F2C"/>
<path d="M201.151 1.92047L206.958 0.171875L206.064 23.1215L201.741 24.4229L201.145 1.92047H201.151Z" fill="#011F2C"/>
<path d="M257.581 0.171875H270.979L306.536 92.3028H300.751L291.016 72.409H228.376L218.642 92.3028H212.719L257.587 0.171875H257.581ZM288.763 67.467L264.776 18.6497C261.107 11.1737 259.696 7.50451 259.696 7.50451C259.696 7.50451 258.143 11.1737 254.479 18.6497L230.635 67.467H288.763Z" fill="#011F2C"/>
</svg>
