<svg width="86" height="86" viewBox="0 0 86 86" fill="none" xmlns="http://www.w3.org/2000/svg">
<g clip-path="url(#clip0_3749_3154)">
<path d="M73.0962 12.9146C70.372 10.1904 66.505 9.15857 62.4553 9.69263C58.5334 10.2098 54.4316 12.2058 51.0797 15.5577L51.0796 15.5578C47.7277 18.9098 45.7318 23.0115 45.2146 26.9333C44.6805 30.983 45.7123 34.8499 48.4365 37.5741L48.4366 37.5741C51.1608 40.2983 55.0278 41.3302 59.0775 40.7961C62.9993 40.2789 67.1011 38.283 70.453 34.931C73.805 31.5791 75.8009 27.4773 76.3181 23.5555C76.8521 19.5058 75.8204 15.6388 73.0962 12.9146ZM69.9655 16.0452C70.1018 16.1815 70.1018 16.4027 69.9655 16.5389C69.8292 16.6752 69.6081 16.6752 69.4718 16.5389C68.5436 15.6107 67.4234 14.965 66.1905 14.5917C64.8998 14.2009 63.4857 14.1068 62.0376 14.2977C60.6271 14.4837 59.1814 14.9419 57.7875 15.6605C56.444 16.3532 55.1489 17.2891 53.98 18.458C53.8437 18.5943 53.6226 18.5943 53.4863 18.458C53.35 18.3217 53.35 18.1006 53.4863 17.9643C54.7049 16.7457 56.0596 15.7677 57.4683 15.0414C58.9329 14.2862 60.4567 13.8042 61.9476 13.6076C63.4957 13.4036 65.0091 13.5046 66.3923 13.9234C67.7337 14.3296 68.9534 15.0331 69.9655 16.0452Z" fill="white"/>
<path d="M47.7865 36.0173C48.3318 35.472 49.216 35.5175 49.7613 36.0628C50.3066 36.6081 50.3066 37.4923 49.7613 38.0376L41.3025 46.4964C36.0007 51.7982 40.2479 52.1556 33.8061 58.6387L17.4989 75.0823L17.4989 75.0823C16.5907 75.9905 15.395 76.4447 14.2004 76.4447C13.0056 76.4447 11.8099 75.9905 10.9018 75.0824L10.9017 75.0823L10.9016 75.0822C9.99347 74.174 9.53931 72.9783 9.53931 71.7836C9.53931 70.5889 9.94801 69.3932 10.8562 68.485L27.368 51.9732C34.2545 45.0867 33.7543 50.095 39.646 44.2034L47.7866 36.0173L47.7865 36.0173Z" fill="white"/>
<path d="M9.8175 23.8268C9.72095 23.7177 9.64472 23.5976 9.58838 23.4713L11.4258 21.6339C11.6022 21.7123 11.7651 21.8289 11.9014 21.983L21.7957 33.1907C21.9441 33.3589 22.131 33.5554 22.3543 33.7787C25.4231 36.9318 29.6406 35.4341 32.432 32.4975L32.4471 32.4818L32.4629 32.4667C35.3994 29.6753 36.8972 25.4578 33.7441 22.389C33.5207 22.1657 33.3242 21.9788 33.156 21.8303L21.9483 11.9361C21.7943 11.7997 21.6777 11.6369 21.5992 11.4604L23.4366 9.62305C23.5629 9.67939 23.683 9.75562 23.7922 9.85216L34.9999 19.7464C35.2932 20.0054 35.5322 20.2276 35.7188 20.4142C38.1242 22.8196 39.0037 25.3363 38.8445 27.7729C38.6885 30.1588 39.7563 36.8144 41.2685 40.0564C41.0544 40.299 40.8576 40.5127 40.6778 40.6985L40.6709 40.7056L40.6638 40.7125C40.478 40.8923 40.2643 41.0891 40.0217 41.3032C36.7797 39.791 30.1241 38.7232 27.7382 38.8792C25.3016 39.0384 22.785 38.1589 20.3795 35.7535C20.1929 35.5669 19.9707 35.3279 19.7117 35.0346L9.8175 23.8268Z" fill="white"/>
<path d="M38.1472 35.9504C37.6019 35.4051 36.7177 35.4506 36.1724 35.9959C35.6271 36.5412 35.6271 37.4254 36.1724 37.9707L44.6312 46.4295C49.933 51.7313 45.6858 52.0887 52.1276 58.5718L68.4348 75.0154L68.4348 75.0154C69.343 75.9236 70.5387 76.3778 71.7333 76.3778C72.9281 76.3778 74.1238 75.9236 75.0319 75.0155L75.032 75.0154L75.0321 75.0153C75.9402 74.1071 76.3944 72.9115 76.3944 71.7167C76.3944 70.522 75.9857 69.3263 75.0775 68.4181L58.5657 51.9063C51.6792 45.0198 52.1794 50.0281 46.2878 44.1365L38.1471 35.9504L38.1472 35.9504Z" fill="white"/>
<path d="M13.4517 19.6115L29.947 36.1069C30.4923 36.6522 31.3765 36.6522 31.9218 36.1069C32.4671 35.5616 32.4671 34.6774 31.9218 34.1321L15.4265 17.6367L13.4517 19.6115Z" fill="white"/>
<path d="M17.8188 15.2443L34.3142 31.7397C34.8595 32.285 35.7437 32.285 36.289 31.7397C36.8343 31.1944 36.8343 30.3102 36.289 29.7649L19.7936 13.2695L17.8188 15.2443Z" fill="white"/>
</g>
<defs>
<clipPath id="clip0_3749_3154">
<rect width="86" height="86" fill="white"/>
</clipPath>
</defs>
</svg>
