<svg width="25" height="24" viewBox="0 0 25 24" fill="none" xmlns="http://www.w3.org/2000/svg">
<path d="M20.5221 6.66596C20.4752 6.61374 20.4178 6.57196 20.3537 6.54336C20.2896 6.51476 20.2202 6.49998 20.1501 6.49996H17.9591L19.6001 3.22346C19.6593 3.10478 19.669 2.96741 19.627 2.84157C19.585 2.71574 19.4947 2.61174 19.376 2.55246C19.2574 2.49319 19.12 2.48349 18.9942 2.5255C18.8683 2.5675 18.7643 2.65778 18.7051 2.77646L16.8411 6.49996H10.1051C10.0117 5.94308 9.76301 5.42386 9.38768 5.00201C9.01235 4.58015 8.52558 4.27278 7.98335 4.11524C7.44111 3.95771 6.86542 3.9564 6.32248 4.11147C5.77953 4.26654 5.29137 4.57169 4.91413 4.99184C4.53689 5.41199 4.28588 5.93008 4.18996 6.48653C4.09405 7.04298 4.15712 7.6152 4.37193 8.1374C4.58674 8.6596 4.94457 9.11058 5.40426 9.43847C5.86396 9.76637 6.40686 9.95787 6.97055 9.99096L7.00805 10.341C7.15005 11.592 7.90955 12.5 8.82005 12.5H9.75405C9.97905 12.5913 10.1598 12.7664 10.2581 12.9885L10.5381 15.5355C10.5831 15.9334 10.7716 16.3013 11.0683 16.5703C11.365 16.8393 11.7496 16.991 12.1501 16.997V18.5H11.0036C10.5054 18.4993 10.0213 18.6656 9.62863 18.9721C9.23595 19.2787 8.95727 19.708 8.83705 20.1915L8.66505 20.8785C8.64658 20.9522 8.64516 21.0292 8.6609 21.1035C8.67664 21.1779 8.70913 21.2477 8.75588 21.3076C8.80264 21.3675 8.86244 21.416 8.93074 21.4493C8.99905 21.4826 9.07405 21.5 9.15005 21.5H18.1501C18.2261 21.5 18.3011 21.4826 18.3694 21.4493C18.4377 21.416 18.4975 21.3675 18.5442 21.3076C18.591 21.2477 18.6235 21.1779 18.6392 21.1035C18.6549 21.0292 18.6535 20.9522 18.6351 20.8785L18.463 20.192C18.3429 19.7084 18.0643 19.279 17.6716 18.9723C17.2789 18.6657 16.7948 18.4993 16.2965 18.5H15.1501V16.997C15.5507 16.991 15.9353 16.8392 16.2321 16.5699C16.5288 16.3007 16.7172 15.9326 16.762 15.5345L17.0421 12.9885C17.1403 12.7667 17.3205 12.5917 17.5451 12.5H18.4801C19.3906 12.5 20.1526 11.592 20.2921 10.339L20.6471 7.05346C20.6546 6.98372 20.6473 6.91318 20.6258 6.84641C20.6042 6.77965 20.5689 6.71817 20.5221 6.66596ZM19.485 8.49996H7.81605L7.70755 7.49996H19.5931L19.485 8.49996ZM5.15005 6.99996C5.14957 6.51283 5.32689 6.04227 5.64874 5.6766C5.97058 5.31093 6.41482 5.0753 6.89807 5.01392C7.38132 4.95255 7.87036 5.06966 8.2734 5.34327C8.67643 5.61688 8.96575 6.02818 9.08705 6.49996H7.15005C7.07984 6.49998 7.01042 6.51477 6.94631 6.54339C6.8822 6.57201 6.82483 6.61381 6.77795 6.66608C6.73106 6.71834 6.69571 6.77989 6.67419 6.84672C6.65267 6.91355 6.64547 6.98417 6.65305 7.05396L6.86105 8.97896C6.38599 8.90896 5.95189 8.67063 5.63784 8.30738C5.32378 7.94413 5.15067 7.48015 5.15005 6.99996ZM17.4931 20.4345L17.5096 20.5H9.79055L9.80705 20.434C9.87359 20.1671 10.0275 19.9301 10.2444 19.7608C10.4612 19.5916 10.7285 19.4997 11.0036 19.5H16.2965C16.5717 19.4998 16.839 19.5917 17.0558 19.761C17.2727 19.9304 17.4266 20.1675 17.4931 20.4345ZM13.1501 18.5V17H14.1501V18.5H13.1501ZM18.4801 11.5H17.5451C17.2024 11.5451 16.8802 11.6888 16.6175 11.9135C16.3549 12.1383 16.1632 12.4344 16.0655 12.766C16.0596 12.7888 16.0554 12.812 16.0531 12.8355L15.7681 15.4245C15.7497 15.5833 15.6735 15.7298 15.554 15.836C15.4344 15.9421 15.2799 16.0005 15.1201 16H12.18C12.02 16.001 11.8651 15.943 11.7452 15.837C11.6252 15.731 11.5486 15.5845 11.5301 15.4255L11.2451 12.8355C11.2427 12.812 11.2385 12.7888 11.2326 12.766C11.1351 12.4347 10.9436 12.1387 10.6814 11.914C10.4192 11.6893 10.0974 11.5455 9.75505 11.5H8.82005C8.49455 11.5 8.08905 11.014 8.00255 10.2325L7.92355 9.49996H19.377L19.3 10.23C19.211 11.014 18.8056 11.5 18.4801 11.5Z" fill="#76AC64"/>
</svg>
