<svg width="437" height="216" viewBox="0 0 437 216" fill="none" xmlns="http://www.w3.org/2000/svg">
<path d="M154.195 132.325H155.846V137.836H163.593V132.325H165.244V145.706H163.593V139.26H155.846V145.706H154.195V132.325Z" fill="#D7CFC5"/>
<path d="M188.47 139.019C188.47 135.18 191.463 132.119 195.453 132.119C199.443 132.119 202.415 135.173 202.415 139.019C202.415 142.865 199.423 145.919 195.453 145.919C191.483 145.919 188.47 142.865 188.47 139.019ZM200.695 139.019C200.695 136.047 198.425 133.625 195.453 133.625C192.481 133.625 190.183 136.04 190.183 139.019C190.183 141.998 192.453 144.413 195.453 144.413C198.453 144.413 200.695 141.998 200.695 139.019Z" fill="#D7CFC5"/>
<path d="M225.669 132.325H227.134L230.395 136.873C231.097 137.863 232.562 139.968 232.562 139.968C232.562 139.968 234.028 137.884 234.729 136.893L237.99 132.325H239.456V145.706H237.805V135.111C237.805 135.111 237.454 135.751 236.814 136.639L232.562 142.631L228.29 136.597C227.691 135.751 227.32 135.111 227.32 135.111V145.706H225.669V132.325Z" fill="#D7CFC5"/>
<path d="M263.253 132.325H273.373V133.77H264.904V137.836H272.836V139.26H264.904V144.261H273.682V145.706H263.253V132.325Z" fill="#D7CFC5"/>
<path d="M154.195 167.687H160.332C162.561 167.687 164.15 168.739 164.15 170.886C164.15 172 163.49 172.991 162.644 173.363C164.15 173.672 165.471 175.076 165.471 176.954C165.471 179.575 163.469 181.068 160.415 181.068H154.195V167.687ZM160.49 172.874C161.687 172.874 162.41 172.09 162.41 171.017C162.41 169.84 161.625 169.138 160.222 169.138H155.846V172.874H160.497H160.49ZM160.304 179.63C162.389 179.63 163.731 178.701 163.731 176.988C163.731 175.378 162.513 174.305 160.717 174.305H155.84V179.637H160.304V179.63Z" fill="#D7CFC5"/>
<path d="M188.14 174.381C188.14 170.542 191.133 167.48 195.123 167.48C199.113 167.48 202.085 170.535 202.085 174.381C202.085 178.227 199.092 181.281 195.123 181.281C191.153 181.281 188.14 178.227 188.14 174.381ZM200.365 174.381C200.365 171.409 198.095 168.987 195.123 168.987C192.151 168.987 189.853 171.402 189.853 174.381C189.853 177.36 192.123 179.774 195.123 179.774C198.122 179.774 200.365 177.36 200.365 174.381Z" fill="#D7CFC5"/>
<path d="M225.173 175.743V167.687H226.825V175.681C226.825 178.158 228.187 179.747 230.725 179.747C233.264 179.747 234.626 178.158 234.626 175.681V167.687H236.277V175.743C236.277 179.093 234.193 181.281 230.718 181.281C227.244 181.281 225.167 179.093 225.167 175.743H225.173Z" fill="#D7CFC5"/>
<path d="M263.81 169.132H258.836V167.687H270.421V169.132H265.468V181.068H263.817V169.132H263.81Z" fill="#D7CFC5"/>
<path d="M293.131 167.687H294.782V181.068H293.131V167.687Z" fill="#D7CFC5"/>
<path d="M318.029 174.381C318.029 170.542 321.022 167.48 325.012 167.48C329.002 167.48 331.974 170.535 331.974 174.381C331.974 176.135 331.355 177.724 330.302 178.942L331.768 180.407L330.984 181.254L329.456 179.747C328.28 180.696 326.732 181.274 325.019 181.274C321.035 181.274 318.036 178.22 318.036 174.374L318.029 174.381ZM328.314 178.591L326.746 177.023L327.592 176.218L329.119 177.766C329.821 176.837 330.254 175.66 330.254 174.381C330.254 171.409 327.984 168.987 325.012 168.987C322.04 168.987 319.742 171.402 319.742 174.381C319.742 177.36 322.012 179.774 325.012 179.774C326.271 179.774 327.427 179.341 328.314 178.598V178.591Z" fill="#D7CFC5"/>
<path d="M355.063 175.743V167.687H356.714V175.681C356.714 178.158 358.076 179.747 360.614 179.747C363.153 179.747 364.515 178.158 364.515 175.681V167.687H366.166V175.743C366.166 179.093 364.082 181.281 360.608 181.281C357.133 181.281 355.056 179.093 355.056 175.743H355.063Z" fill="#D7CFC5"/>
<path d="M389.819 167.687H399.939V169.132H391.47V173.197H399.402V174.622H391.47V179.623H400.249V181.068H389.819V167.687Z" fill="#D7CFC5"/>
<path d="M41.3471 0.323853H48.1649V77.019C49.3551 75.8219 51.7424 72.5885 54.1296 70.0292L120.939 0.323853H129.463L81.7448 50.6009L132.366 110.764H124.014L77.4863 55.3754L48.1718 85.715V110.764H32.9194L41.354 0.323853H41.3471Z" fill="#D7CFC5"/>
<path d="M207.554 0.206909H212.466L266.3 110.764H259.359L247.677 86.8914H172.509L160.827 110.764H153.72L207.561 0.206909H207.554ZM244.973 80.9611L216.188 22.3803C211.785 13.4091 210.093 9.00608 210.093 9.00608C210.093 9.00608 208.229 13.4091 203.832 22.3803L175.22 80.9611H244.973Z" fill="#D7CFC5"/>
<path d="M273.779 2.30522L280.748 0.206909L279.675 27.7464L274.487 29.3081L273.772 2.30522H273.779Z" fill="#D7CFC5"/>
<path d="M341.496 0.206909H357.574L400.242 110.764H393.3L381.618 86.8914H306.45L294.769 110.764H287.662L341.503 0.206909H341.496ZM378.915 80.9611L350.13 22.3803C345.727 13.4091 344.034 9.00608 344.034 9.00608C344.034 9.00608 342.17 13.4091 337.774 22.3803L309.161 80.9611H378.915Z" fill="#D7CFC5"/>
</svg>
