<svg width="1920" height="847" viewBox="0 0 1920 847" fill="none" xmlns="http://www.w3.org/2000/svg">
<path d="M6.19873 317.019L5.71619 317.15L6.19885 317.019L53.7882 493.025C67.9255 545.322 107.021 587.195 158.189 604.87L525.774 731.748C563.095 744.619 603.819 743.541 640.384 728.691L826.861 652.955C869.035 635.846 916.389 636.988 957.685 656.119L957.475 656.573L957.685 656.119L1333.7 830.489C1381.23 852.532 1436.44 850.406 1482.14 824.782L1482.38 825.212L1482.14 824.782L1835.99 626.462C1887.56 597.547 1919.5 543.008 1919.5 483.838V389.089C1919.5 383.934 1919.27 378.809 1918.77 373.686L1918.77 373.662V373.638V373.632L1905.29 231.21C1898.22 156.607 1841.41 96.3611 1767.38 85.034L1767.46 84.5397L1767.38 85.034L1227.44 2.37613C1201.32 -1.61313 1174.62 0.774677 1149.63 9.39362L1149.47 8.92095L1149.63 9.39369L790.214 133.205C756.527 144.807 719.973 145.129 686.082 134.143L686.236 133.667L686.081 134.143L379.479 34.6612C338.347 21.325 293.637 24.8483 255.094 44.4451L89.8007 128.592C20.8888 163.68 -14.0182 242.33 6.19873 317.019Z" stroke="white"/>
</svg>
