<svg width="201" height="42" viewBox="0 0 201 42" fill="none" xmlns="http://www.w3.org/2000/svg">
<g clip-path="url(#clip0_3527_895)">
<path fill-rule="evenodd" clip-rule="evenodd" d="M10.6816 5.8064L0.150757 17.3133L10.6816 28.828V21.5682L6.59791 17.3133L10.6816 13.0663V5.8064Z" fill="white"/>
<path fill-rule="evenodd" clip-rule="evenodd" d="M0.150757 18.9784L10.6816 30.4892L0.150757 42V34.7401L4.23448 30.4892L0.150757 26.2383V18.9784Z" fill="white"/>
<path d="M19.1805 35.2574C19.0148 34.4307 18.348 34.0115 17.5313 34.0115C16.1306 34.0115 15.5387 35.1594 15.5387 36.3779C15.5387 37.7139 16.1345 38.8266 17.5431 38.8266C18.569 38.8266 19.1687 38.1096 19.2397 37.1419H20.0249C19.875 38.5993 18.9596 39.4848 17.476 39.4848C15.6413 39.4848 14.7535 38.1409 14.7535 36.4406C14.7535 34.7402 15.7242 33.3572 17.5431 33.3572C18.7702 33.3572 19.7842 34.0154 19.9697 35.2613H19.1845L19.1805 35.2574Z" fill="white"/>
<path d="M23.4852 33.3533C25.3554 33.3533 26.3063 34.8303 26.3063 36.4171C26.3063 38.0038 25.3554 39.477 23.4852 39.477C21.615 39.477 20.6641 38.0038 20.6641 36.4171C20.6641 34.8303 21.615 33.3533 23.4852 33.3533ZM23.4852 38.8266C24.9214 38.8266 25.5251 37.5964 25.5251 36.421C25.5251 35.2456 24.9214 34.0115 23.4852 34.0115C22.049 34.0115 21.4453 35.2417 21.4453 36.421C21.4453 37.6003 22.049 38.8266 23.4852 38.8266Z" fill="white"/>
<path d="M27.2533 33.4945H28.0858L31.191 38.2391H31.2068V33.4945H31.9486V39.3439H31.0924L28.0187 34.6503H28.003V39.3439H27.2612V33.4945H27.2533Z" fill="white"/>
<path d="M36.6242 35.2064C36.5334 34.3719 35.9692 34.0115 35.1643 34.0115C34.5054 34.0115 33.8425 34.2505 33.8425 35.0105C33.8425 35.7706 34.7816 35.8372 35.7285 36.0488C36.6715 36.2643 37.6106 36.5895 37.6106 37.7413C37.6106 38.9872 36.3835 39.4809 35.3103 39.4809C33.9885 39.4809 32.8758 38.8423 32.8758 37.4161H33.6176C33.6176 38.3995 34.4422 38.8266 35.33 38.8266C36.0402 38.8266 36.8254 38.6072 36.8254 37.7648C36.8254 36.9225 35.8824 36.8206 34.9433 36.6169C34.0043 36.4131 33.0573 36.1428 33.0573 35.0693C33.0573 33.8861 34.1187 33.3572 35.1919 33.3572C36.3993 33.3572 37.3107 33.9253 37.362 35.2104H36.6202L36.6242 35.2064Z" fill="white"/>
<path d="M39.899 34.1528H37.9341V33.4985H42.6412V34.1528H40.6842V39.348H39.899V34.1528Z" fill="white"/>
<path d="M43.2923 33.4945H46.0621C47.1669 33.4945 47.8534 34.09 47.8534 35.0264C47.8534 35.7356 47.5417 36.3154 46.8276 36.5113V36.527C47.5102 36.6602 47.6522 37.1578 47.7114 37.7337C47.7587 38.3096 47.7272 38.9482 48.0586 39.3518H47.1827C46.9578 39.1128 47.084 38.482 46.9657 37.91C46.8828 37.338 46.7408 36.8522 45.9871 36.8522H44.0696V39.3557H43.2883V33.5063L43.2923 33.4945ZM45.707 36.19C46.4409 36.19 47.0682 36.002 47.0682 35.1479C47.0682 34.5719 46.7565 34.1488 46.0227 34.1488H44.0735V36.19H45.707Z" fill="white"/>
<path d="M53.6417 37.2283C53.6417 38.7092 52.7973 39.4811 51.3256 39.4811C49.8539 39.4811 48.9109 38.7837 48.9109 37.2283V33.4945H49.6921V37.2283C49.6921 38.2665 50.2839 38.8268 51.3216 38.8268C52.3593 38.8268 52.8565 38.2665 52.8565 37.2283V33.4945H53.6377V37.2283H53.6417Z" fill="white"/>
<path d="M56.2339 34.1528H54.269V33.4985H58.9801V34.1528H57.0152V39.348H56.23V34.1528H56.2339Z" fill="white"/>
<path d="M62.1248 33.3533C63.995 33.3533 64.9419 34.8303 64.9419 36.4171C64.9419 38.0038 63.995 39.477 62.1248 39.477C60.2545 39.477 59.2997 38.0038 59.2997 36.4171C59.2997 34.8303 60.2506 33.3533 62.1248 33.3533ZM62.1248 38.8266C63.561 38.8266 64.1607 37.5964 64.1607 36.421C64.1607 35.2456 63.561 34.0115 62.1248 34.0115C60.6885 34.0115 60.0849 35.2417 60.0849 36.421C60.0849 37.6003 60.6885 38.8266 62.1248 38.8266Z" fill="white"/>
<path d="M65.9047 33.4945H68.6745C69.7832 33.4945 70.4658 34.09 70.4658 35.0264C70.4658 35.7356 70.1541 36.3154 69.4478 36.5113V36.527C70.1304 36.6602 70.2725 37.1578 70.3317 37.7337C70.383 38.3096 70.3474 38.9482 70.6789 39.3518H69.8029C69.582 39.1128 69.7043 38.482 69.5859 37.91C69.5031 37.338 69.361 36.8522 68.6035 36.8522H66.6859V39.3557H65.9047V33.5063V33.4945ZM68.3194 36.19C69.0533 36.19 69.6806 36.002 69.6806 35.1479C69.6806 34.5719 69.3689 34.1488 68.635 34.1488H66.6898V36.19H68.3233H68.3194Z" fill="white"/>
<path d="M73.1528 33.4945H74.0169L76.3172 39.3439H75.4531L74.81 37.5809H72.3163L71.6574 39.3439H70.8485L73.1528 33.4945ZM72.5649 36.9266H74.5574L73.575 34.1997H73.5592L72.5609 36.9266H72.5649Z" fill="white"/>
<path d="M82.3264 38.6152C81.9752 39.1598 81.3045 39.4419 80.6613 39.4419C79.0673 39.4419 78.8187 38.3175 78.8187 37.8434C78.8187 36.9266 79.4461 36.4682 80.1997 36.0764C79.8683 35.6102 79.5447 35.2967 79.5447 34.7012C79.5447 34.0626 80.0261 33.4945 80.8705 33.4945C81.6043 33.4945 82.2988 33.8941 82.2988 34.6895C82.2988 35.3869 81.7622 35.8884 81.194 36.2096L82.2593 37.4947C82.3658 37.2048 82.4329 36.8953 82.4487 36.5818H83.1116C83.0603 37.2714 82.9656 37.5104 82.721 38.0236L83.8652 39.3439H82.9459L82.3185 38.6152H82.3264ZM80.5824 36.5191C80.034 36.8286 79.5644 37.1421 79.5644 37.8395C79.5644 38.4272 80.1168 38.8268 80.689 38.8268C81.2256 38.8268 81.6517 38.5564 81.9437 38.1333L80.5864 36.5191H80.5824ZM81.6004 34.7326C81.6004 34.3956 81.3439 34.1057 80.9257 34.1057C80.5943 34.1057 80.247 34.3016 80.247 34.7326C80.247 35.0813 80.5587 35.426 80.8192 35.7434C81.1545 35.5318 81.6004 35.2223 81.6004 34.7326Z" fill="white"/>
<path d="M86.7139 33.4945H87.5031V39.3439H86.7139V33.4945Z" fill="white"/>
<path d="M88.8091 33.4945H89.6455L92.7428 38.2391H92.7626V33.4945H93.5044V39.3439H92.6442L89.5706 34.6503H89.5548V39.3439H88.813V33.4945H88.8091Z" fill="white"/>
<path d="M98.9138 35.2574C98.7481 34.4307 98.0813 34.0115 97.2645 34.0115C95.8639 34.0115 95.2681 35.1594 95.2681 36.3779C95.2681 37.7139 95.8638 38.8266 97.2724 38.8266C98.3022 38.8266 98.898 38.1096 98.9691 37.1419H99.7542C99.6043 38.5993 98.6929 39.4848 97.2054 39.4848C95.3746 39.4848 94.4829 38.1409 94.4829 36.4406C94.4829 34.7402 95.4535 33.3572 97.2685 33.3572C98.4956 33.3572 99.5136 34.0154 99.6911 35.2613H98.9099L98.9138 35.2574Z" fill="white"/>
<path d="M103.218 33.3533C105.089 33.3533 106.04 34.8303 106.04 36.4171C106.04 38.0038 105.089 39.477 103.218 39.477C101.348 39.477 100.397 38.0038 100.397 36.4171C100.397 34.8303 101.344 33.3533 103.218 33.3533ZM103.218 38.8266C104.651 38.8266 105.254 37.5964 105.254 36.421C105.254 35.2456 104.651 34.0115 103.218 34.0115C101.786 34.0115 101.179 35.2417 101.179 36.421C101.179 37.6003 101.778 38.8266 103.218 38.8266Z" fill="white"/>
<path d="M106.994 33.4945H109.768C110.873 33.4945 111.556 34.09 111.556 35.0264C111.556 35.7356 111.244 36.3154 110.538 36.5113V36.527C111.22 36.6602 111.354 37.1578 111.421 37.7337C111.469 38.3096 111.437 38.9482 111.769 39.3518H110.893C110.672 39.1128 110.794 38.482 110.68 37.91C110.597 37.338 110.455 36.8522 109.693 36.8522H107.784V39.3557H106.994V33.5063V33.4945ZM109.409 36.19C110.143 36.19 110.774 36.002 110.774 35.1479C110.774 34.5719 110.459 34.1488 109.725 34.1488H107.78V36.19H109.409Z" fill="white"/>
<path d="M112.645 33.4945H115.225C116.397 33.4945 117.032 34.1449 117.032 35.2262C117.032 36.3076 116.397 36.9619 115.225 36.954H113.43V39.3439H112.645V33.4945ZM113.43 36.2958H114.965C115.848 36.3036 116.251 35.9197 116.251 35.2262C116.251 34.5328 115.844 34.1527 114.965 34.1527H113.43V36.2997V36.2958Z" fill="white"/>
<path d="M120.485 33.3533C122.355 33.3533 123.298 34.8303 123.298 36.4171C123.298 38.0038 122.355 39.477 120.485 39.477C118.614 39.477 117.663 38.0038 117.663 36.4171C117.663 34.8303 118.61 33.3533 120.485 33.3533ZM120.485 38.8266C121.917 38.8266 122.521 37.5964 122.521 36.421C122.521 35.2456 121.917 34.0115 120.485 34.0115C119.052 34.0115 118.445 35.2417 118.445 36.421C118.445 37.6003 119.048 38.8266 120.485 38.8266Z" fill="white"/>
<path d="M124.257 33.4945H127.03C128.135 33.4945 128.822 34.09 128.822 35.0264C128.822 35.7356 128.506 36.3154 127.792 36.5113V36.527C128.478 36.6602 128.62 37.1578 128.676 37.7337C128.727 38.3096 128.691 38.9482 129.027 39.3518H128.147C127.926 39.1128 128.048 38.482 127.934 37.91C127.851 37.338 127.709 36.8522 126.951 36.8522H125.038V39.3557H124.253V33.5063L124.257 33.4945ZM126.675 36.19C127.409 36.19 128.036 36.002 128.036 35.1479C128.036 34.5719 127.721 34.1488 126.983 34.1488H125.038V36.19H126.671H126.675Z" fill="white"/>
<path d="M131.509 33.4945H132.373L134.677 39.3439H133.813L133.17 37.5809H130.676L130.017 39.3439H129.208L131.509 33.4945ZM130.925 36.9266H132.917L131.935 34.1997H131.919L130.921 36.9266H130.925Z" fill="white"/>
<path d="M135.253 33.4945H137.273C139.088 33.4945 140.098 34.3956 140.098 36.2801C140.098 38.1647 139.234 39.3439 137.273 39.3439H135.253V33.4945ZM136.038 38.6857H137.34C137.877 38.6857 139.317 38.5408 139.317 36.3859C139.317 34.9951 138.8 34.1527 137.352 34.1527H136.038V38.6897V38.6857Z" fill="white"/>
<path d="M143.551 33.3533C145.421 33.3533 146.372 34.8303 146.372 36.4171C146.372 38.0038 145.421 39.477 143.551 39.477C141.68 39.477 140.73 38.0038 140.73 36.4171C140.73 34.8303 141.677 33.3533 143.551 33.3533ZM143.551 38.8266C144.987 38.8266 145.587 37.5964 145.587 36.421C145.587 35.2456 144.987 34.0115 143.551 34.0115C142.114 34.0115 141.515 35.2417 141.515 36.421C141.515 37.6003 142.114 38.8266 143.551 38.8266Z" fill="white"/>
<path d="M147.331 33.4945H150.1C151.205 33.4945 151.892 34.09 151.892 35.0264C151.892 35.7356 151.58 36.3154 150.87 36.5113V36.527C151.552 36.6602 151.694 37.1578 151.758 37.7337C151.805 38.3096 151.769 38.9482 152.101 39.3518H151.225C151.004 39.1128 151.126 38.482 151.012 37.91C150.929 37.338 150.787 36.8522 150.029 36.8522H148.116V39.3557H147.331V33.5063V33.4945ZM149.749 36.19C150.487 36.19 151.111 36.002 151.111 35.1479C151.111 34.5719 150.795 34.1488 150.065 34.1488H148.116V36.19H149.749Z" fill="white"/>
<path d="M154.579 33.4945H155.443L157.743 39.3439H156.879L156.236 37.5809H153.742L153.079 39.3439H152.274L154.575 33.4945H154.579ZM153.991 36.9266H155.991L155.005 34.1997H154.989L153.991 36.9266Z" fill="white"/>
<path d="M27.0442 15.9146C26.7325 13.078 24.8307 11.8556 22.0845 11.8556C19.8473 11.8556 17.6023 12.6627 17.6023 15.2485C17.6023 17.6972 20.7982 18.0577 24.0179 18.7825C27.2099 19.5034 30.4058 20.6161 30.4058 24.5105C30.4058 28.7379 26.2314 30.4344 22.5895 30.4344C18.1073 30.4344 14.3274 28.2638 14.3274 23.4252H16.8486C16.8486 26.7633 19.6461 28.209 22.6724 28.209C25.0792 28.209 27.7425 27.4607 27.7425 24.5928C27.7425 21.7248 24.5466 21.3957 21.3546 20.6983C18.1665 20.001 14.9429 19.0842 14.9429 15.4444C14.9429 11.409 18.5532 9.63025 22.1989 9.63025C26.2866 9.63025 29.3958 11.55 29.5654 15.9146H27.0442Z" fill="white"/>
<path d="M32.0827 10.1044H40.8499C44.8271 10.1044 46.9854 12.3023 46.9854 15.9734C46.9854 19.6445 44.8271 21.8699 40.8499 21.8424H34.7421V29.9643H32.0827V10.1044ZM34.7421 19.6171H39.9543C42.949 19.6445 44.3221 18.3359 44.3221 15.9734C44.3221 13.6109 42.949 12.3297 39.9543 12.3297H34.7421V19.6171Z" fill="white"/>
<path d="M48.8083 10.1044H51.4716V29.9643H48.8083V10.1044Z" fill="white"/>
<path d="M60.4873 12.3297H53.8232V10.1044H69.8187V12.3297H63.1506V29.9643H60.4873V12.3297Z" fill="white"/>
<path d="M73.867 10.1044H76.8064L84.6227 29.9643H81.6793L79.4974 23.9816H71.0379L68.7968 29.9643H66.0507L73.8709 10.1044H73.867ZM71.8744 21.7602H78.653L75.3189 12.4982H75.2677L71.8783 21.7602H71.8744Z" fill="white"/>
<path d="M86.5797 10.1044H89.243V27.7389H99.8371V29.9643H86.5837V10.1044H86.5797Z" fill="white"/>
<path d="M102.157 10.1044H115.967V12.3297H104.816V18.6415H115.209V20.8669H104.816V27.7389H116.05V29.9643H102.157V10.1044Z" fill="white"/>
<path d="M123.811 12.3297H117.147V10.1044H133.138V12.3297H126.47V29.9643H123.811V12.3297Z" fill="white"/>
<path d="M140.915 12.3297H134.247V10.1044H150.242V12.3297H143.578V29.9643H140.915V12.3297Z" fill="white"/>
<path d="M151.541 10.1044H154.2V29.9643H151.541V10.1044Z" fill="white"/>
<path d="M180.588 29.9838C181.145 29.1767 181.591 28.2756 181.906 27.3197C182.143 28.1346 182.482 28.8868 182.912 29.5568C183.93 29.404 185 29.2904 186.108 29.2159C188.685 29.0435 191.064 29.2982 193.167 29.8428C194.37 28.8633 195.554 27.6096 196.568 26.0698C199.484 21.6975 200.573 17.4309 200.005 12.6471C199.784 10.7939 199.389 9.58719 197.996 8.6704L198.075 8.05137L197.87 7.91816C196.683 7.14633 195.771 6.84466 194.915 6.94652C193.633 7.0954 190.318 8.69391 187.28 11.6441C184.593 14.2887 182.711 17.6542 181.922 20.9805C180.959 18.6101 178.714 17.3525 175.956 17.7795C174.686 17.9794 173.376 18.3672 172.054 18.9353C172.594 17.9128 173.171 16.9646 173.798 16.0596L177.949 15.4131C180.21 15.0605 181.516 14.8215 182.064 14.0144C182.514 13.2935 183.599 11.3777 183.903 9.19148L183.982 8.61555L183.413 8.7566C181.764 9.16798 180.316 9.46966 178.979 9.67731C177.408 9.92413 176.272 10.0456 175.518 10.1279C175.171 10.167 174.915 10.1945 174.757 10.218C173.147 10.4687 172.598 11.1387 170.748 13.6579C168.471 16.8079 167.418 19.3232 167.552 20.1773C167.69 21.0432 168.112 22.1245 168.661 23.0021C169.118 23.7309 169.805 24.5771 170.531 24.4635C170.886 24.4086 171.363 24.1853 172.022 23.8797C173.151 23.3508 174.859 22.5555 176.891 22.2381C177.751 22.101 179.211 22.0031 179.342 22.8454C179.432 23.4174 178.509 25.4077 175.96 27.4215C173.277 29.5646 170.827 30.407 169.904 30.548C169.793 30.5637 169.675 30.5833 169.545 30.5911L172.381 28.2286L171.399 28.1659C171.004 28.1424 170.637 28.1973 170.318 28.2482C168.976 28.4598 167.591 29.1023 166.617 29.9682C165.477 30.9829 164.96 32.221 165.153 33.459C165.358 34.7598 165.784 35.5708 166.487 36.0174C166.952 36.3113 167.528 36.4445 168.298 36.4249C168.613 36.417 168.961 36.3818 169.343 36.323C169.908 36.2329 170.484 36.1114 171.056 35.9586C171.809 33.3376 175.36 31.1357 180.588 29.9799V29.9838ZM193.1 13.0937L193.471 14.2182L193.921 13.5404C194.793 12.2279 195.783 11.6598 196.205 11.6088C196.383 11.5892 196.919 11.5266 197.046 12.6118C197.251 14.3279 196.544 17.7835 193.881 21.8934C191.194 26.0581 188.192 28.2051 187.004 28.3461C186.278 28.4323 185.97 28.3226 185.801 26.8887C185.311 22.771 188.03 17.6424 193.1 13.0937Z" fill="white"/>
<g style="mix-blend-mode:multiply">
<path d="M180.588 29.9838C181.145 29.1767 181.591 28.2756 181.906 27.3197C182.143 28.1346 182.482 28.8868 182.912 29.5568C183.93 29.404 185 29.2904 186.108 29.2159C188.685 29.0435 191.064 29.2982 193.167 29.8428C194.37 28.8633 195.554 27.6096 196.568 26.0698C199.484 21.6975 200.573 17.4309 200.005 12.6471C199.784 10.7939 199.389 9.58719 197.996 8.6704L198.075 8.05137L197.87 7.91816C196.683 7.14633 195.771 6.84466 194.915 6.94652C193.633 7.0954 190.318 8.69391 187.28 11.6441C184.593 14.2887 182.711 17.6542 181.922 20.9805C180.959 18.6101 178.714 17.3525 175.956 17.7795C174.686 17.9794 173.376 18.3672 172.054 18.9353C172.594 17.9128 173.171 16.9646 173.798 16.0596L177.949 15.4131C180.21 15.0605 181.516 14.8215 182.064 14.0144C182.514 13.2935 183.599 11.3777 183.903 9.19148L183.982 8.61555L183.413 8.7566C181.764 9.16798 180.316 9.46966 178.979 9.67731C177.408 9.92413 176.272 10.0456 175.518 10.1279C175.171 10.167 174.915 10.1945 174.757 10.218C173.147 10.4687 172.598 11.1387 170.748 13.6579C168.471 16.8079 167.418 19.3232 167.552 20.1773C167.69 21.0432 168.112 22.1245 168.661 23.0021C169.118 23.7309 169.805 24.5771 170.531 24.4635C170.886 24.4086 171.363 24.1853 172.022 23.8797C173.151 23.3508 174.859 22.5555 176.891 22.2381C177.751 22.101 179.211 22.0031 179.342 22.8454C179.432 23.4174 178.509 25.4077 175.96 27.4215C173.277 29.5646 170.827 30.407 169.904 30.548C169.793 30.5637 169.675 30.5833 169.545 30.5911L172.381 28.2286L171.399 28.1659C171.004 28.1424 170.637 28.1973 170.318 28.2482C168.976 28.4598 167.591 29.1023 166.617 29.9682C165.477 30.9829 164.96 32.221 165.153 33.459C165.358 34.7598 165.784 35.5708 166.487 36.0174C166.952 36.3113 167.528 36.4445 168.298 36.4249C168.613 36.417 168.961 36.3818 169.343 36.323C169.908 36.2329 170.484 36.1114 171.056 35.9586C171.809 33.3376 175.36 31.1357 180.588 29.9799V29.9838ZM193.1 13.0937L193.471 14.2182L193.921 13.5404C194.793 12.2279 195.783 11.6598 196.205 11.6088C196.383 11.5892 196.919 11.5266 197.046 12.6118C197.251 14.3279 196.544 17.7835 193.881 21.8934C191.194 26.0581 188.192 28.2051 187.004 28.3461C186.278 28.4323 185.97 28.3226 185.801 26.8887C185.311 22.771 188.03 17.6424 193.1 13.0937Z" fill="white"/>
</g>
<path d="M173.822 38.6228C173.668 38.5013 173.557 38.3211 173.482 38.0821C173.407 37.8431 173.368 37.514 173.352 37.0948C173.34 36.6756 173.399 36.2524 173.534 35.8293C173.668 35.4062 173.861 35.0183 174.117 34.6735C174.638 33.9526 175.349 33.4825 176.248 33.2944C176.572 33.2239 176.852 33.2239 177.092 33.2866C177.633 33.1299 178.178 32.9888 178.722 32.8517C178.525 34.1133 178.324 35.3787 178.126 36.6442C178.11 36.7226 178.103 36.8323 178.107 36.9694C178.11 37.1065 178.158 37.2162 178.245 37.2907C178.335 37.3651 178.442 37.4004 178.568 37.3925C178.513 37.6159 178.371 37.8078 178.138 37.9724C177.909 38.1369 177.665 38.2427 177.404 38.2897C177.144 38.3368 176.923 38.3289 176.745 38.2662C176.568 38.2036 176.449 38.0978 176.394 37.945C176.299 38.1213 176.142 38.2858 175.932 38.4308C175.719 38.5797 175.471 38.6855 175.183 38.7521C174.895 38.8226 174.634 38.8461 174.398 38.8304C174.161 38.8147 173.968 38.7481 173.818 38.6228M175.696 34.3052C175.629 34.4345 175.562 34.603 175.506 34.8067C175.447 35.0144 175.376 35.3827 175.289 35.9194C175.203 36.4562 175.163 36.9067 175.171 37.2711C175.183 37.6355 175.218 37.8627 175.278 37.9567C175.337 38.0508 175.416 38.086 175.518 38.0625C175.719 38.0155 175.893 37.8823 176.039 37.659C176.181 37.4356 176.276 37.1496 176.323 36.797C176.461 35.8411 176.603 34.8851 176.745 33.9291C176.607 33.8429 176.461 33.8155 176.307 33.8468C176.149 33.8782 176.027 33.933 175.94 33.9996C175.85 34.0702 175.771 34.172 175.7 34.2974" fill="white"/>
<path d="M183.145 37.1811C182.368 37.2124 181.973 36.946 181.954 36.3505C181.954 36.1859 181.977 35.9626 182.021 35.6805C182.068 35.3867 182.119 35.0928 182.167 34.799C182.317 33.9684 182.388 33.463 182.38 33.2788C182.368 32.9145 182.253 32.7342 182.036 32.7499C181.669 32.7734 181.409 33.2671 181.243 34.2231C181.085 35.1986 180.924 36.1742 180.766 37.1537C180.123 37.279 179.484 37.4201 178.844 37.5729C179.125 35.8529 179.405 34.1369 179.689 32.4208C180.21 32.2954 180.734 32.1818 181.259 32.08C181.216 32.3934 181.176 32.7068 181.133 33.0203C181.417 32.3777 182.021 32.0134 182.944 31.9703C183.394 31.9507 183.713 32.0369 183.911 32.221C184.104 32.4051 184.21 32.7068 184.222 33.1221C184.234 33.5139 184.151 34.1682 183.974 35.0889C183.891 35.5042 183.851 35.7863 183.855 35.943C183.859 36.0997 183.907 36.2173 183.997 36.3074C184.088 36.3936 184.195 36.4406 184.325 36.4523C184.266 36.6678 184.128 36.8402 183.911 36.9695C183.694 37.0988 183.441 37.1693 183.149 37.1811" fill="white"/>
<path d="M186.428 36.8247C185.019 36.7698 184.293 36.139 184.254 34.8265C184.226 33.898 184.463 33.1262 184.964 32.5267C185.497 31.892 186.238 31.5864 187.193 31.6413C187.884 31.6844 188.409 31.892 188.768 32.2407C189.127 32.5933 189.316 33.1066 189.34 33.7726C189.367 34.7874 189.123 35.5592 188.59 36.0959C188.073 36.6288 187.351 36.8599 186.432 36.8208M186.554 32.6991C186.483 32.8676 186.42 33.0792 186.369 33.3299C186.313 33.5846 186.258 33.9137 186.191 34.3133C186.124 34.7168 186.1 35.1674 186.116 35.6689C186.12 35.8334 186.152 35.9706 186.211 36.0803C186.27 36.19 186.373 36.2487 186.519 36.2527C186.669 36.2605 186.787 36.2292 186.878 36.1665C186.968 36.0999 187.047 35.9902 187.11 35.8295C187.229 35.5435 187.331 35.1361 187.418 34.5993C187.505 34.0665 187.548 33.6786 187.552 33.4474C187.552 33.2124 187.552 33.0086 187.548 32.8323C187.544 32.6599 187.513 32.5111 187.458 32.3935C187.402 32.276 187.304 32.2133 187.158 32.2055C187.016 32.1976 186.893 32.2368 186.803 32.3191C186.712 32.4014 186.625 32.5267 186.554 32.6952" fill="white"/>
<path d="M192.244 33.5649C192.323 33.3454 192.362 33.1339 192.354 32.9302C192.342 32.554 192.188 32.3385 191.885 32.2837C191.727 32.2563 191.585 32.3033 191.459 32.4247C191.332 32.5462 191.273 32.6951 191.277 32.8753C191.281 33.0007 191.336 33.126 191.439 33.2436C191.589 33.4081 191.853 33.6354 192.232 33.9331C192.611 34.2309 192.871 34.4934 193.021 34.7089C193.167 34.9283 193.246 35.1634 193.254 35.4219C193.262 35.6805 193.206 35.9156 193.092 36.1232C192.978 36.3348 192.812 36.4994 192.595 36.6208C192.133 36.8833 191.526 36.9499 190.764 36.8363C190.354 36.7736 189.983 36.6169 189.659 36.3662C189.336 36.1193 189.17 35.8725 189.162 35.6257C189.154 35.3788 189.237 35.1908 189.415 35.0654C189.592 34.94 189.813 34.893 190.081 34.9283C190.35 34.9635 190.567 35.0458 190.733 35.1712C190.658 35.3671 190.618 35.5356 190.626 35.6766C190.638 36.0958 190.823 36.3309 191.178 36.3857C191.328 36.4093 191.455 36.3857 191.553 36.3035C191.652 36.2251 191.699 36.1037 191.691 35.9391C191.683 35.6139 191.399 35.2339 190.847 34.8068C190.393 34.4464 190.113 34.2074 190.01 34.082C189.833 33.8587 189.738 33.6158 189.734 33.365C189.726 33.1104 189.778 32.8714 189.892 32.6441C190.007 32.4169 190.172 32.2328 190.389 32.0956C190.843 31.8057 191.47 31.7195 192.271 31.8723C192.682 31.9507 193.009 32.0996 193.254 32.319C193.502 32.5384 193.629 32.7852 193.637 33.0673C193.644 33.3494 193.569 33.5492 193.408 33.6706C193.246 33.7921 193.013 33.8234 192.713 33.7607C192.504 33.7177 192.35 33.655 192.248 33.5649" fill="white"/>
<path d="M173.822 38.5993C173.672 38.4779 173.557 38.2977 173.482 38.0587C173.407 37.8197 173.368 37.4906 173.352 37.0713C173.34 36.6521 173.399 36.229 173.534 35.8059C173.668 35.3827 173.861 34.9949 174.117 34.6501C174.638 33.9292 175.349 33.459 176.248 33.271C176.572 33.2044 176.852 33.2044 177.092 33.2631C177.633 33.1064 178.178 32.9615 178.722 32.8282C178.525 34.0898 178.324 35.3553 178.126 36.6208C178.11 36.6991 178.103 36.8088 178.107 36.946C178.11 37.0831 178.158 37.1889 178.245 37.2633C178.335 37.3378 178.442 37.373 178.572 37.3652C178.513 37.5885 178.371 37.7805 178.142 37.945C177.913 38.1096 177.669 38.2115 177.408 38.2585C177.148 38.3055 176.927 38.2976 176.749 38.235C176.572 38.1723 176.453 38.0665 176.398 37.9098C176.299 38.0861 176.146 38.2506 175.936 38.3956C175.723 38.5445 175.475 38.6503 175.187 38.7169C174.899 38.7835 174.638 38.8109 174.402 38.7952C174.165 38.7796 173.971 38.7129 173.822 38.5915M175.7 34.27C175.633 34.3993 175.566 34.5678 175.51 34.7715C175.451 34.9792 175.38 35.3475 175.289 35.8842C175.203 36.421 175.163 36.8715 175.171 37.2359C175.183 37.6003 175.218 37.8275 175.278 37.9215C175.337 38.0156 175.416 38.0508 175.518 38.0273C175.723 37.9803 175.893 37.8471 176.039 37.6238C176.181 37.4004 176.276 37.1105 176.323 36.7618C176.461 35.8059 176.603 34.8499 176.741 33.8978C176.603 33.8116 176.457 33.7842 176.303 33.8156C176.146 33.8469 176.023 33.9018 175.936 33.9684C175.846 34.0389 175.767 34.1407 175.696 34.27" fill="white"/>
<mask id="mask0_3527_895" style="mask-type:luminance" maskUnits="userSpaceOnUse" x="173" y="32" width="6" height="7">
<path d="M173.822 38.5993C173.672 38.4779 173.557 38.2977 173.482 38.0587C173.407 37.8197 173.368 37.4906 173.352 37.0713C173.34 36.6521 173.399 36.229 173.534 35.8059C173.668 35.3827 173.861 34.9949 174.117 34.6501C174.638 33.9292 175.349 33.459 176.248 33.271C176.572 33.2044 176.852 33.2044 177.092 33.2631C177.633 33.1064 178.178 32.9615 178.722 32.8282C178.525 34.0898 178.324 35.3553 178.126 36.6208C178.11 36.6991 178.103 36.8088 178.107 36.946C178.11 37.0831 178.158 37.1889 178.245 37.2633C178.335 37.3378 178.442 37.373 178.572 37.3652C178.513 37.5885 178.371 37.7805 178.142 37.945C177.913 38.1096 177.669 38.2115 177.408 38.2585C177.148 38.3055 176.927 38.2976 176.749 38.235C176.572 38.1723 176.453 38.0665 176.398 37.9098C176.299 38.0861 176.146 38.2506 175.936 38.3956C175.723 38.5445 175.475 38.6503 175.187 38.7169C174.899 38.7835 174.638 38.8109 174.402 38.7952C174.165 38.7796 173.971 38.7129 173.822 38.5915M175.7 34.27C175.633 34.3993 175.566 34.5678 175.51 34.7715C175.451 34.9792 175.38 35.3475 175.289 35.8842C175.203 36.421 175.163 36.8715 175.171 37.2359C175.183 37.6003 175.218 37.8275 175.278 37.9215C175.337 38.0156 175.416 38.0508 175.518 38.0273C175.723 37.9803 175.893 37.8471 176.039 37.6238C176.181 37.4004 176.276 37.1105 176.323 36.7618C176.461 35.8059 176.603 34.8499 176.741 33.8978C176.603 33.8116 176.457 33.7842 176.303 33.8156C176.146 33.8469 176.023 33.9018 175.936 33.9684C175.846 34.0389 175.767 34.1407 175.696 34.27" fill="white"/>
</mask>
<g mask="url(#mask0_3527_895)">
<path d="M178.712 32.8185L173.307 32.843L173.334 38.8609L178.74 38.8363L178.712 32.8185Z" fill="white"/>
</g>
<path d="M183.145 37.1575C182.368 37.1889 181.973 36.9224 181.954 36.3269C181.954 36.1624 181.977 35.939 182.021 35.657C182.068 35.3631 182.119 35.0693 182.167 34.7754C182.317 33.9448 182.388 33.4355 182.384 33.2553C182.372 32.887 182.257 32.7107 182.04 32.7264C181.673 32.7499 181.413 33.2435 181.247 34.1995C181.085 35.1751 180.928 36.1506 180.77 37.1262C180.127 37.2515 179.487 37.3926 178.848 37.5493C179.128 35.8293 179.409 34.1133 179.693 32.3973C180.213 32.2719 180.738 32.1583 181.263 32.0564C181.22 32.3698 181.18 32.6833 181.137 32.9967C181.421 32.3542 182.025 31.9898 182.948 31.9467C183.398 31.9271 183.717 32.0133 183.914 32.1974C184.108 32.3777 184.214 32.6793 184.226 33.0986C184.238 33.4904 184.155 34.1446 183.978 35.0654C183.895 35.4767 183.855 35.7627 183.859 35.9195C183.863 36.0723 183.911 36.1937 184.001 36.2799C184.092 36.3661 184.199 36.417 184.329 36.4288C184.27 36.6443 184.131 36.8167 183.918 36.946C183.701 37.0752 183.449 37.1458 183.157 37.1575" fill="white"/>
<mask id="mask1_3527_895" style="mask-type:luminance" maskUnits="userSpaceOnUse" x="178" y="31" width="7" height="7">
<path d="M183.145 37.1575C182.368 37.1889 181.973 36.9224 181.954 36.3269C181.954 36.1624 181.977 35.939 182.021 35.657C182.068 35.3631 182.119 35.0693 182.167 34.7754C182.317 33.9448 182.388 33.4355 182.384 33.2553C182.372 32.887 182.257 32.7107 182.04 32.7264C181.673 32.7499 181.413 33.2435 181.247 34.1995C181.085 35.1751 180.928 36.1506 180.77 37.1262C180.127 37.2515 179.487 37.3926 178.848 37.5493C179.128 35.8293 179.409 34.1133 179.693 32.3973C180.213 32.2719 180.738 32.1583 181.263 32.0564C181.22 32.3698 181.18 32.6833 181.137 32.9967C181.421 32.3542 182.025 31.9898 182.948 31.9467C183.398 31.9271 183.717 32.0133 183.914 32.1974C184.108 32.3777 184.214 32.6793 184.226 33.0986C184.238 33.4904 184.155 34.1446 183.978 35.0654C183.895 35.4767 183.855 35.7627 183.859 35.9195C183.863 36.0723 183.911 36.1937 184.001 36.2799C184.092 36.3661 184.199 36.417 184.329 36.4288C184.27 36.6443 184.131 36.8167 183.918 36.946C183.701 37.0752 183.449 37.1458 183.157 37.1575" fill="white"/>
</mask>
<g mask="url(#mask1_3527_895)">
<path d="M184.319 31.9156L178.815 31.9406L178.84 37.5862L184.344 37.5612L184.319 31.9156Z" fill="white"/>
</g>
<path d="M186.428 36.801C185.019 36.7461 184.293 36.1154 184.254 34.8029C184.226 33.8743 184.459 33.1025 184.964 32.5031C185.497 31.8683 186.238 31.5628 187.193 31.6176C187.884 31.6607 188.409 31.8644 188.768 32.217C189.127 32.5697 189.32 33.0829 189.34 33.7489C189.367 34.7637 189.119 35.5355 188.59 36.0723C188.073 36.6051 187.351 36.8363 186.432 36.7971M186.554 32.6754C186.483 32.8439 186.42 33.0555 186.369 33.3101C186.317 33.5648 186.258 33.89 186.191 34.2935C186.128 34.6971 186.1 35.1476 186.116 35.6491C186.12 35.8137 186.152 35.9508 186.211 36.0605C186.27 36.1702 186.373 36.229 186.519 36.2329C186.669 36.2407 186.787 36.2133 186.878 36.1467C186.968 36.0801 187.047 35.9704 187.11 35.8058C187.229 35.5238 187.331 35.1124 187.418 34.5756C187.505 34.0389 187.548 33.6549 187.552 33.4238C187.552 33.1887 187.552 32.985 187.548 32.8126C187.544 32.6402 187.513 32.4913 187.458 32.3738C187.402 32.2562 187.304 32.1935 187.158 32.1857C187.016 32.1779 186.893 32.2131 186.803 32.2993C186.708 32.3816 186.625 32.5109 186.554 32.6754Z" fill="white"/>
<mask id="mask2_3527_895" style="mask-type:luminance" maskUnits="userSpaceOnUse" x="184" y="31" width="6" height="6">
<path d="M186.428 36.801C185.019 36.7461 184.293 36.1154 184.254 34.8029C184.226 33.8743 184.459 33.1025 184.964 32.5031C185.497 31.8683 186.238 31.5628 187.193 31.6176C187.884 31.6607 188.409 31.8644 188.768 32.217C189.127 32.5697 189.32 33.0829 189.34 33.7489C189.367 34.7637 189.119 35.5355 188.59 36.0723C188.073 36.6051 187.351 36.8363 186.432 36.7971M186.554 32.6754C186.483 32.8439 186.42 33.0555 186.369 33.3101C186.317 33.5648 186.258 33.89 186.191 34.2935C186.128 34.6971 186.1 35.1476 186.116 35.6491C186.12 35.8137 186.152 35.9508 186.211 36.0605C186.27 36.1702 186.373 36.229 186.519 36.2329C186.669 36.2407 186.787 36.2133 186.878 36.1467C186.968 36.0801 187.047 35.9704 187.11 35.8058C187.229 35.5238 187.331 35.1124 187.418 34.5756C187.505 34.0389 187.548 33.6549 187.552 33.4238C187.552 33.1887 187.552 32.985 187.548 32.8126C187.544 32.6402 187.513 32.4913 187.458 32.3738C187.402 32.2562 187.304 32.1935 187.158 32.1857C187.016 32.1779 186.893 32.2131 186.803 32.2993C186.708 32.3816 186.625 32.5109 186.554 32.6754Z" fill="white"/>
</mask>
<g mask="url(#mask2_3527_895)">
<path d="M189.364 31.552L184.195 31.5754L184.219 36.8763L189.388 36.8529L189.364 31.552Z" fill="white"/>
</g>
<path d="M192.244 33.5413C192.323 33.3219 192.362 33.1103 192.354 32.9066C192.342 32.5305 192.188 32.315 191.885 32.2601C191.727 32.2327 191.585 32.2797 191.459 32.4012C191.332 32.5226 191.273 32.6754 191.277 32.8517C191.281 32.9771 191.336 33.1025 191.439 33.22C191.589 33.3846 191.853 33.6118 192.232 33.9096C192.611 34.2073 192.871 34.4698 193.021 34.6853C193.167 34.9047 193.246 35.1398 193.254 35.3984C193.262 35.6569 193.206 35.892 193.092 36.0997C192.978 36.3073 192.812 36.4758 192.595 36.5972C192.133 36.8597 191.526 36.9263 190.764 36.8127C190.354 36.75 189.983 36.5933 189.659 36.3426C189.336 36.0958 189.17 35.8489 189.162 35.6021C189.154 35.3553 189.237 35.1672 189.415 35.0418C189.592 34.9165 189.813 34.8694 190.081 34.9047C190.35 34.94 190.567 35.0222 190.733 35.1476C190.658 35.3435 190.618 35.512 190.626 35.653C190.638 36.0722 190.823 36.3073 191.178 36.3622C191.328 36.3857 191.455 36.3622 191.553 36.2799C191.652 36.1976 191.699 36.0801 191.691 35.9155C191.683 35.5903 191.399 35.2064 190.847 34.7832C190.393 34.4228 190.113 34.1838 190.01 34.0545C189.833 33.8312 189.738 33.5922 189.734 33.3375C189.726 33.0829 189.782 32.8439 189.892 32.6166C190.007 32.3894 190.172 32.2053 190.389 32.0681C190.843 31.7782 191.47 31.6959 192.271 31.8448C192.682 31.9232 193.009 32.0721 193.254 32.2875C193.502 32.503 193.629 32.7538 193.637 33.0359C193.644 33.318 193.569 33.5178 193.408 33.6392C193.246 33.7607 193.013 33.792 192.713 33.7293C192.504 33.6862 192.35 33.6235 192.248 33.5374" fill="white"/>
<mask id="mask3_3527_895" style="mask-type:luminance" maskUnits="userSpaceOnUse" x="189" y="31" width="5" height="6">
<path d="M192.244 33.5413C192.323 33.3219 192.362 33.1103 192.354 32.9066C192.342 32.5305 192.188 32.315 191.885 32.2601C191.727 32.2327 191.585 32.2797 191.459 32.4012C191.332 32.5226 191.273 32.6754 191.277 32.8517C191.281 32.9771 191.336 33.1025 191.439 33.22C191.589 33.3846 191.853 33.6118 192.232 33.9096C192.611 34.2073 192.871 34.4698 193.021 34.6853C193.167 34.9047 193.246 35.1398 193.254 35.3984C193.262 35.6569 193.206 35.892 193.092 36.0997C192.978 36.3073 192.812 36.4758 192.595 36.5972C192.133 36.8597 191.526 36.9263 190.764 36.8127C190.354 36.75 189.983 36.5933 189.659 36.3426C189.336 36.0958 189.17 35.8489 189.162 35.6021C189.154 35.3553 189.237 35.1672 189.415 35.0418C189.592 34.9165 189.813 34.8694 190.081 34.9047C190.35 34.94 190.567 35.0222 190.733 35.1476C190.658 35.3435 190.618 35.512 190.626 35.653C190.638 36.0722 190.823 36.3073 191.178 36.3622C191.328 36.3857 191.455 36.3622 191.553 36.2799C191.652 36.1976 191.699 36.0801 191.691 35.9155C191.683 35.5903 191.399 35.2064 190.847 34.7832C190.393 34.4228 190.113 34.1838 190.01 34.0545C189.833 33.8312 189.738 33.5922 189.734 33.3375C189.726 33.0829 189.782 32.8439 189.892 32.6166C190.007 32.3894 190.172 32.2053 190.389 32.0681C190.843 31.7782 191.47 31.6959 192.271 31.8448C192.682 31.9232 193.009 32.0721 193.254 32.2875C193.502 32.503 193.629 32.7538 193.637 33.0359C193.644 33.318 193.569 33.5178 193.408 33.6392C193.246 33.7607 193.013 33.792 192.713 33.7293C192.504 33.6862 192.35 33.6235 192.248 33.5374" fill="white"/>
</mask>
<g mask="url(#mask3_3527_895)">
<path d="M193.641 31.6895L189.131 31.71L189.155 36.9599L193.665 36.9394L193.641 31.6895Z" fill="white"/>
</g>
</g>
<defs>
<clipPath id="clip0_3527_895">
<rect width="200" height="42" fill="white" transform="translate(0.150757)"/>
</clipPath>
</defs>
</svg>
