<svg width="86" height="86" viewBox="0 0 86 86" fill="none" xmlns="http://www.w3.org/2000/svg">
<path d="M58.5885 18.3086H28.606C26.6346 18.3086 25.0367 16.6167 25.0367 14.5293C25.0367 12.4419 26.6346 10.75 28.606 10.75H58.5885C60.5599 10.75 62.1578 12.4419 62.1578 14.5293C62.1578 16.6167 60.5599 18.3086 58.5885 18.3086ZM62.1578 27.127V71.4707C62.1578 73.5581 60.5599 75.25 58.5885 75.25H54.3053C52.3338 75.25 50.7359 73.5581 50.7359 71.4707V64.9199C50.7359 62.8325 49.138 61.1406 47.1666 61.1406H40.0279C38.0565 61.1406 36.4586 62.8325 36.4586 64.9199V71.4707C36.4586 73.5581 34.8607 75.25 32.8892 75.25H28.606C26.6346 75.25 25.0367 73.5581 25.0367 71.4707V27.127C25.0367 25.0395 26.6346 23.3477 28.606 23.3477H58.5885C60.5599 23.3477 62.1578 25.0395 62.1578 27.127ZM54.3053 42.2441C54.3053 40.1567 52.7074 38.4648 50.7359 38.4648H47.1666V34.6855C47.1666 32.5981 45.5687 30.9062 43.5972 30.9062C41.6258 30.9062 40.0279 32.5981 40.0279 34.6855V38.4648H36.4586C34.4871 38.4648 32.8892 40.1567 32.8892 42.2441C32.8892 44.3316 34.4871 46.0234 36.4586 46.0234H40.0279V49.8027C40.0279 51.8902 41.6258 53.582 43.5972 53.582C45.5687 53.582 47.1666 51.8902 47.1666 49.8027V46.0234H50.7359C52.7074 46.0234 54.3053 44.3316 54.3053 42.2441ZM74.0556 71.4707V32.166C74.0556 30.0786 72.4577 28.3867 70.4862 28.3867C68.5148 28.3867 66.9169 30.0786 66.9169 32.166V71.4707C66.9169 73.5581 68.5148 75.25 70.4862 75.25C72.4577 75.25 74.0556 73.5581 74.0556 71.4707ZM20.2776 71.4707V32.166C20.2776 30.0786 18.6797 28.3867 16.7083 28.3867C14.7368 28.3867 13.1389 30.0786 13.1389 32.166V71.4707C13.1389 73.5581 14.7368 75.25 16.7083 75.25C18.6797 75.25 20.2776 73.5581 20.2776 71.4707Z" fill="white"/>
</svg>
