<svg width="25" height="24" viewBox="0 0 25 24" fill="none" xmlns="http://www.w3.org/2000/svg">
<path d="M20.1 6H22.35C22.5489 6 22.7397 5.92098 22.8803 5.78033C23.021 5.63968 23.1 5.44891 23.1 5.25V3" stroke="#76AC64" stroke-width="1.5" stroke-linecap="round" stroke-linejoin="round"/>
<path d="M2.09998 3V5.25C2.09998 5.44891 2.17899 5.63968 2.31965 5.78033C2.4603 5.92098 2.65106 6 2.84998 6H8.09998" stroke="#76AC64" stroke-width="1.5" stroke-linecap="round" stroke-linejoin="round"/>
<path d="M6.59998 3.75H18.6C18.9978 3.75 19.3793 3.90804 19.6606 4.18934C19.9419 4.47064 20.1 4.85218 20.1 5.25V21H8.09998V5.25" stroke="#76AC64" stroke-width="1.5" stroke-linecap="round" stroke-linejoin="round"/>
<path d="M8.09998 5.25C8.09998 4.85218 7.94194 4.47064 7.66064 4.18934C7.37933 3.90804 6.9978 3.75 6.59998 3.75C6.20215 3.75 5.82062 3.90804 5.53932 4.18934C5.25801 4.47064 5.09998 4.85218 5.09998 5.25V18H8.09998" stroke="#76AC64" stroke-width="1.5" stroke-linecap="round" stroke-linejoin="round"/>
</svg>
