<svg xmlns="http://www.w3.org/2000/svg" width="307" height="152" fill="none" viewBox="0 0 307 152"><path fill="#D7CFC5" d="M101.496 110.271H102.872V114.863H109.328V110.271H110.703V121.421H109.328V116.049H102.872V121.421H101.496V110.271Z"/><path fill="#D7CFC5" d="M130.059 115.849C130.059 112.65 132.553 110.099 135.878 110.099C139.204 110.099 141.68 112.644 141.68 115.849C141.68 119.054 139.186 121.599 135.878 121.599C132.57 121.599 130.059 119.054 130.059 115.849ZM140.247 115.849C140.247 113.372 138.355 111.354 135.878 111.354C133.402 111.354 131.487 113.367 131.487 115.849C131.487 118.331 133.379 120.344 135.878 120.344C138.378 120.344 140.247 118.331 140.247 115.849Z"/><path fill="#D7CFC5" d="M161.057 110.271H162.279L164.996 114.06C165.581 114.886 166.802 116.64 166.802 116.64C166.802 116.64 168.023 114.903 168.608 114.077L171.325 110.271H172.547V121.421H171.171V112.592C171.171 112.592 170.878 113.126 170.345 113.865L166.802 118.859L163.242 113.831C162.743 113.126 162.433 112.592 162.433 112.592V121.421H161.057V110.271Z"/><path fill="#D7CFC5" d="M192.377 110.271H200.811V111.474H193.753V114.863H200.363V116.049H193.753V120.217H201.069V121.421H192.377V110.271Z"/><path fill="#D7CFC5" d="M101.496 139.739H106.61C108.468 139.739 109.792 140.616 109.792 142.405C109.792 143.333 109.242 144.159 108.536 144.469C109.792 144.727 110.893 145.896 110.893 147.461C110.893 149.646 109.224 150.89 106.679 150.89H101.496V139.739ZM106.742 144.062C107.739 144.062 108.341 143.408 108.341 142.514C108.341 141.533 107.688 140.948 106.518 140.948H102.872V144.062H106.748H106.742ZM106.587 149.691C108.324 149.691 109.442 148.917 109.442 147.49C109.442 146.148 108.427 145.254 106.931 145.254H102.866V149.697H106.587V149.691Z"/><path fill="#D7CFC5" d="M129.783 145.317C129.783 142.118 132.277 139.567 135.602 139.567C138.927 139.567 141.404 142.112 141.404 145.317C141.404 148.522 138.91 151.067 135.602 151.067C132.294 151.067 129.783 148.522 129.783 145.317ZM139.971 145.317C139.971 142.84 138.079 140.822 135.602 140.822C133.126 140.822 131.211 142.835 131.211 145.317C131.211 147.8 133.103 149.812 135.602 149.812C138.102 149.812 139.971 147.8 139.971 145.317Z"/><path fill="#D7CFC5" d="M160.644 146.452V139.739H162.02V146.401C162.02 148.465 163.155 149.789 165.271 149.789C167.387 149.789 168.522 148.465 168.522 146.401V139.739H169.898V146.452C169.898 149.244 168.16 151.067 165.265 151.067C162.37 151.067 160.639 149.244 160.639 146.452H160.644Z"/><path fill="#D7CFC5" d="M192.842 140.943H188.697V139.739H198.351V140.943H194.223V150.89H192.847V140.943H192.842Z"/><path fill="#D7CFC5" d="M217.275 139.739H218.651V150.89H217.275V139.739Z"/><path fill="#D7CFC5" d="M238.023 145.317C238.023 142.118 240.517 139.567 243.842 139.567C247.167 139.567 249.644 142.112 249.644 145.317C249.644 146.779 249.128 148.103 248.251 149.118L249.472 150.339L248.819 151.045L247.546 149.789C246.566 150.58 245.276 151.062 243.848 151.062C240.529 151.062 238.029 148.516 238.029 145.311L238.023 145.317ZM246.594 148.826L245.287 147.519L245.992 146.848L247.265 148.138C247.85 147.364 248.211 146.384 248.211 145.317C248.211 142.84 246.319 140.822 243.842 140.822C241.366 140.822 239.451 142.835 239.451 145.317C239.451 147.8 241.343 149.812 243.842 149.812C244.891 149.812 245.855 149.451 246.594 148.832V148.826Z"/><path fill="#D7CFC5" d="M268.885 146.452V139.739H270.261V146.401C270.261 148.465 271.396 149.789 273.511 149.789C275.627 149.789 276.762 148.465 276.762 146.401V139.739H278.138V146.452C278.138 149.244 276.401 151.067 273.505 151.067C270.61 151.067 268.879 149.244 268.879 146.452H268.885Z"/><path fill="#D7CFC5" d="M297.848 139.739H306.282V140.943H299.224V144.331H305.834V145.518H299.224V149.686H306.54V150.89H297.848V139.739Z"/><path fill="#D7CFC5" d="M7.45659 0.270508H13.1381V64.1831C14.1299 63.1856 16.1193 60.491 18.1087 58.3583L73.7827 0.270508H80.8857L41.1214 42.168L83.3057 92.304H76.3457L37.5726 46.1468L13.1438 71.4298V92.304H0.433594L7.4623 0.270508H7.45659Z"/><path fill="#D7CFC5" d="M145.962 0.171875H150.055L194.917 92.3028H189.132L179.397 72.409H116.757L107.023 92.3028H101.1L145.968 0.171875H145.962ZM177.144 67.467L153.157 18.6497C149.488 11.1737 148.077 7.50451 148.077 7.50451C148.077 7.50451 146.524 11.1737 142.86 18.6497L119.016 67.467H177.144Z"/><path fill="#D7CFC5" d="M201.149 1.92047L206.956 0.171875L206.062 23.1215L201.739 24.4229L201.143 1.92047H201.149Z"/><path fill="#D7CFC5" d="M257.581 0.171875H270.979L306.536 92.3028H300.751L291.016 72.409H228.376L218.642 92.3028H212.719L257.587 0.171875H257.581ZM288.763 67.467L264.776 18.6497C261.107 11.1737 259.696 7.50451 259.696 7.50451C259.696 7.50451 258.143 11.1737 254.479 18.6497L230.635 67.467H288.763Z"/></svg>