<svg width="24" height="24" viewBox="0 0 24 24" fill="none" xmlns="http://www.w3.org/2000/svg">
<path d="M22.75 11.7501C22.75 12.1642 22.4141 12.5001 22 12.5001H14.5C14.1709 12.5001 13.8799 12.2853 13.7832 11.9708L13.5264 11.1369L12.2207 15.7062C12.1338 16.0124 11.8623 16.2296 11.5449 16.2487C11.5303 16.2497 11.5147 16.2501 11.5 16.2501C11.1992 16.2501 10.9268 16.0705 10.8086 15.7912L9.51757 12.7252L9.19628 13.5285C9.08202 13.8136 8.80663 14.0001 8.49999 14.0001H2C1.58594 14.0001 1.25 13.6642 1.25 13.2501C1.25 12.8361 1.58594 12.5001 2 12.5001H7.99219L8.80371 10.4718C8.91699 10.1891 9.18945 10.0031 9.49316 10.0001H9.5C9.80176 10.0001 10.0742 10.1808 10.1914 10.4591L11.3643 13.2453L12.7793 8.29408C12.8701 7.97474 13.1602 7.75355 13.4922 7.75013H13.5C13.8291 7.75013 14.1201 7.96449 14.2168 8.27943L15.0537 11.0001H22C22.4141 11.0001 22.75 11.3361 22.75 11.7501ZM5.88452 11.2501C5.84729 11.2044 5.81915 11.1537 5.80273 11.1139C5.71972 10.9142 5.7207 10.6295 5.90722 10.4425L13.5107 2.84438C13.5742 2.7809 13.6309 2.75014 13.6895 2.75014C13.7256 2.75014 13.7627 2.76137 13.8027 2.78383C13.959 2.87172 14.0928 3.10756 14.0185 3.4186L13.2645 6.53756C13.3374 6.52871 13.4048 6.50094 13.4795 6.50015C13.9308 6.51162 14.3613 6.67074 14.7115 6.9349L15.4766 3.77065C15.6973 2.85415 15.3115 1.9103 14.5371 1.47573C13.8428 1.08608 13.0254 1.20864 12.4502 1.78335L4.84668 9.38198C4.35748 9.87118 4.17535 10.569 4.3053 11.2501H5.88452ZM10.2559 21.1422C10.1309 21.2819 10.0391 21.2624 9.95996 21.2213C9.80176 21.1398 9.66406 20.9098 9.73144 20.5968L10.47 17.2025C10.1166 16.9889 9.82465 16.6751 9.65625 16.276L9.31372 15.4627L8.26562 20.278C8.06445 21.2086 8.47753 22.1447 9.27246 22.5544C9.52832 22.6862 9.79785 22.7506 10.0645 22.7506C10.541 22.7506 11.0078 22.5446 11.3652 22.152L19.0084 13.7502H16.9804L10.2559 21.1422Z" fill="#76AC64"/>
</svg>
